<?xml version="1.0" encoding="UTF-8" standalone="no"?>
<!DOCTYPE svg PUBLIC "-//W3C//DTD SVG 1.1//EN"
 "http://www.w3.org/Graphics/SVG/1.1/DTD/svg11.dtd">
<!-- Generated by graphviz version 2.38.0 (20140413.2041)
 -->
<!-- Title: dependency&#45;cruiser output Pages: 1 -->
<svg width="891pt" height="674pt"
 viewBox="0.00 0.00 891.00 674.00" xmlns="http://www.w3.org/2000/svg" xmlns:xlink="http://www.w3.org/1999/xlink">
<g id="graph0" class="graph" transform="scale(1 1) rotate(0) translate(4 670)">
<title>dependency&#45;cruiser output</title>
<polygon fill="white" stroke="none" points="-4,4 -4,-670 887,-670 887,4 -4,4"/>
<g id="clust1" class="cluster"><title>cluster_/src</title>
<path fill="none" stroke="black" stroke-width="2" d="M20,-56C20,-56 863,-56 863,-56 869,-56 875,-62 875,-68 875,-68 875,-646 875,-646 875,-652 869,-658 863,-658 863,-658 20,-658 20,-658 14,-658 8,-652 8,-646 8,-646 8,-68 8,-68 8,-62 14,-56 20,-56"/>
<text text-anchor="middle" x="441.5" y="-646.8" font-family="Helvetica,sans-Serif" font-weight="bold" font-size="9.00">src</text>
</g>
<g id="clust2" class="cluster"><title>cluster_/src/client</title>
<path fill="none" stroke="black" stroke-width="2" d="M28,-154C28,-154 855,-154 855,-154 861,-154 867,-160 867,-166 867,-166 867,-620 867,-620 867,-626 861,-632 855,-632 855,-632 28,-632 28,-632 22,-632 16,-626 16,-620 16,-620 16,-166 16,-166 16,-160 22,-154 28,-154"/>
<text text-anchor="middle" x="441.5" y="-620.8" font-family="Helvetica,sans-Serif" font-weight="bold" font-size="9.00">client</text>
</g>
<g id="clust4" class="cluster"><title>cluster_/src/client/app</title>
<path fill="none" stroke="black" stroke-width="2" d="M36,-162C36,-162 317,-162 317,-162 323,-162 329,-168 329,-174 329,-174 329,-290 329,-290 329,-296 323,-302 317,-302 317,-302 36,-302 36,-302 30,-302 24,-296 24,-290 24,-290 24,-174 24,-174 24,-168 30,-162 36,-162"/>
<text text-anchor="middle" x="176.5" y="-290.8" font-family="Helvetica,sans-Serif" font-weight="bold" font-size="9.00">app</text>
</g>
<g id="clust3" class="cluster"><title>cluster_/src/client/admin</title>
<path fill="none" stroke="black" stroke-width="2" d="M400.5,-162C400.5,-162 575,-162 575,-162 581,-162 587,-168 587,-174 587,-174 587,-202 587,-202 587,-208 581,-214 575,-214 575,-214 400.5,-214 400.5,-214 394.5,-214 388.5,-208 388.5,-202 388.5,-202 388.5,-174 388.5,-174 388.5,-168 394.5,-162 400.5,-162"/>
<text text-anchor="middle" x="487.75" y="-202.8" font-family="Helvetica,sans-Serif" font-weight="bold" font-size="9.00">admin</text>
</g>
<g id="clust5" class="cluster"><title>cluster_/src/client/auth</title>
<path fill="none" stroke="black" stroke-width="2" d="M528,-432C528,-432 847,-432 847,-432 853,-432 859,-438 859,-444 859,-444 859,-530 859,-530 859,-536 853,-542 847,-542 847,-542 528,-542 528,-542 522,-542 516,-536 516,-530 516,-530 516,-444 516,-444 516,-438 522,-432 528,-432"/>
<text text-anchor="middle" x="687.5" y="-530.8" font-family="Helvetica,sans-Serif" font-weight="bold" font-size="9.00">auth</text>
</g>
<g id="clust11" class="cluster"><title>cluster_/src/client/root</title>
<path fill="none" stroke="black" stroke-width="2" d="M146,-480C146,-480 457.5,-480 457.5,-480 463.5,-480 469.5,-486 469.5,-492 469.5,-492 469.5,-594 469.5,-594 469.5,-600 463.5,-606 457.5,-606 457.5,-606 146,-606 146,-606 140,-606 134,-600 134,-594 134,-594 134,-492 134,-492 134,-486 140,-480 146,-480"/>
<text text-anchor="middle" x="301.75" y="-594.8" font-family="Helvetica,sans-Serif" font-weight="bold" font-size="9.00">root</text>
</g>
<g id="clust8" class="cluster"><title>cluster_/src/client/home</title>
<path fill="none" stroke="black" stroke-width="2" d="M376,-283C376,-283 733,-283 733,-283 739,-283 745,-289 745,-295 745,-295 745,-411 745,-411 745,-417 739,-423 733,-423 733,-423 376,-423 376,-423 370,-423 364,-417 364,-411 364,-411 364,-295 364,-295 364,-289 370,-283 376,-283"/>
<text text-anchor="middle" x="554.5" y="-411.8" font-family="Helvetica,sans-Serif" font-weight="bold" font-size="9.00">home</text>
</g>
<g id="clust9" class="cluster"><title>cluster_/src/client/menu</title>
<path fill="none" stroke="black" stroke-width="2" d="M140,-336C140,-336 332,-336 332,-336 338,-336 344,-342 344,-348 344,-348 344,-436 344,-436 344,-442 338,-448 332,-448 332,-448 140,-448 140,-448 134,-448 128,-442 128,-436 128,-436 128,-348 128,-348 128,-342 134,-336 140,-336"/>
<text text-anchor="middle" x="236" y="-436.8" font-family="Helvetica,sans-Serif" font-weight="bold" font-size="9.00">menu</text>
</g>
<g id="clust10" class="cluster"><title>cluster_/src/client/openings</title>
<path fill="none" stroke="black" stroke-width="2" d="M400.5,-222C400.5,-222 582.5,-222 582.5,-222 588.5,-222 594.5,-228 594.5,-234 594.5,-234 594.5,-262 594.5,-262 594.5,-268 588.5,-274 582.5,-274 582.5,-274 400.5,-274 400.5,-274 394.5,-274 388.5,-268 388.5,-262 388.5,-262 388.5,-234 388.5,-234 388.5,-228 394.5,-222 400.5,-222"/>
<text text-anchor="middle" x="491.5" y="-262.8" font-family="Helvetica,sans-Serif" font-weight="bold" font-size="9.00">openings</text>
</g>
<g id="clust6" class="cluster"><title>cluster_/src/client/common</title>
<path fill="none" stroke="black" stroke-width="2" d="M650.5,-175C650.5,-175 845.5,-175 845.5,-175 851.5,-175 857.5,-181 857.5,-187 857.5,-187 857.5,-249 857.5,-249 857.5,-255 851.5,-261 845.5,-261 845.5,-261 650.5,-261 650.5,-261 644.5,-261 638.5,-255 638.5,-249 638.5,-249 638.5,-187 638.5,-187 638.5,-181 644.5,-175 650.5,-175"/>
<text text-anchor="middle" x="748" y="-249.8" font-family="Helvetica,sans-Serif" font-weight="bold" font-size="9.00">common</text>
</g>
<g id="clust7" class="cluster"><title>cluster_/src/client/common/board</title>
<path fill="none" stroke="black" stroke-width="2" d="M658.5,-183C658.5,-183 837.5,-183 837.5,-183 843.5,-183 849.5,-189 849.5,-195 849.5,-195 849.5,-223 849.5,-223 849.5,-229 843.5,-235 837.5,-235 837.5,-235 658.5,-235 658.5,-235 652.5,-235 646.5,-229 646.5,-223 646.5,-223 646.5,-195 646.5,-195 646.5,-189 652.5,-183 658.5,-183"/>
<text text-anchor="middle" x="748" y="-223.8" font-family="Helvetica,sans-Serif" font-weight="bold" font-size="9.00">board</text>
</g>
<g id="clust12" class="cluster"><title>cluster_/src/server</title>
<path fill="none" stroke="black" stroke-width="2" d="M43,-64C43,-64 89,-64 89,-64 95,-64 101,-70 101,-76 101,-76 101,-104 101,-104 101,-110 95,-116 89,-116 89,-116 43,-116 43,-116 37,-116 31,-110 31,-104 31,-104 31,-76 31,-76 31,-70 37,-64 43,-64"/>
<text text-anchor="middle" x="66" y="-104.8" font-family="Helvetica,sans-Serif" font-weight="bold" font-size="9.00">server</text>
</g>
<g id="clust13" class="cluster"><title>cluster_/src/shared</title>
<path fill="none" stroke="black" stroke-width="2" d="M649,-64C649,-64 837,-64 837,-64 843,-64 849,-70 849,-76 849,-76 849,-134 849,-134 849,-140 843,-146 837,-146 837,-146 649,-146 649,-146 643,-146 637,-140 637,-134 637,-134 637,-76 637,-76 637,-70 643,-64 649,-64"/>
<text text-anchor="middle" x="743" y="-134.8" font-family="Helvetica,sans-Serif" font-weight="bold" font-size="9.00">shared</text>
</g>
<!-- ./app.styles -->
<g id="node1" class="node"><title>./app.styles</title>
<path fill="#ffffcc" stroke="red" d="M317.5,-48C317.5,-48 270.5,-48 270.5,-48 267.5,-48 264.5,-45 264.5,-42 264.5,-42 264.5,-36 264.5,-36 264.5,-33 267.5,-30 270.5,-30 270.5,-30 317.5,-30 317.5,-30 320.5,-30 323.5,-33 323.5,-36 323.5,-36 323.5,-42 323.5,-42 323.5,-45 320.5,-48 317.5,-48"/>
<text text-anchor="middle" x="294" y="-36.8" font-family="Helvetica,sans-Serif" font-size="9.00" fill="red">app.styles</text>
</g>
<!-- ./openings.styles -->
<g id="node2" class="node"><title>./openings.styles</title>
<path fill="#ffffcc" stroke="red" d="M717,-48C717,-48 647,-48 647,-48 644,-48 641,-45 641,-42 641,-42 641,-36 641,-36 641,-33 644,-30 647,-30 647,-30 717,-30 717,-30 720,-30 723,-33 723,-36 723,-36 723,-42 723,-42 723,-45 720,-48 717,-48"/>
<text text-anchor="middle" x="682" y="-36.8" font-family="Helvetica,sans-Serif" font-size="9.00" fill="red">openings.styles</text>
</g>
<!-- http -->
<g id="node3" class="node"><title>http</title>
<path fill="#ffffcc" stroke="grey" d="M197,-48C197,-48 155,-48 155,-48 152,-48 149,-45 149,-42 149,-42 149,-36 149,-36 149,-33 152,-30 155,-30 155,-30 197,-30 197,-30 200,-30 203,-33 203,-36 203,-36 203,-42 203,-42 203,-45 200,-48 197,-48"/>
<text text-anchor="middle" x="176" y="-36.8" font-family="Helvetica,sans-Serif" font-size="9.00" fill="grey">http</text>
</g>
<!-- path -->
<g id="node4" class="node"><title>path</title>
<path fill="#ffffcc" stroke="grey" d="M197,-18C197,-18 155,-18 155,-18 152,-18 149,-15 149,-12 149,-12 149,-6 149,-6 149,-3 152,-0 155,-0 155,-0 197,-0 197,-0 200,-0 203,-3 203,-6 203,-6 203,-12 203,-12 203,-15 200,-18 197,-18"/>
<text text-anchor="middle" x="176" y="-6.8" font-family="Helvetica,sans-Serif" font-size="9.00" fill="grey">path</text>
</g>
<!-- src/client/admin/Admin.tsx -->
<g id="node5" class="node"><title>src/client/admin/Admin.tsx</title>
<g id="a_node5"><a xlink:href="src/client/admin/Admin.tsx" xlink:title="Admin.tsx">
<path fill="#ffffcc" stroke="black" d="M573,-188C573,-188 529,-188 529,-188 526,-188 523,-185 523,-182 523,-182 523,-176 523,-176 523,-173 526,-170 529,-170 529,-170 573,-170 573,-170 576,-170 579,-173 579,-176 579,-176 579,-182 579,-182 579,-185 576,-188 573,-188"/>
<text text-anchor="middle" x="551" y="-176.8" font-family="Helvetica,sans-Serif" font-size="9.00">Admin.tsx</text>
</a>
</g>
</g>
<!-- src/client/admin/index.ts -->
<g id="node6" class="node"><title>src/client/admin/index.ts</title>
<g id="a_node6"><a xlink:href="src/client/admin/index.ts" xlink:title="index.ts">
<path fill="#ffffcc" stroke="black" d="M444.5,-188C444.5,-188 402.5,-188 402.5,-188 399.5,-188 396.5,-185 396.5,-182 396.5,-182 396.5,-176 396.5,-176 396.5,-173 399.5,-170 402.5,-170 402.5,-170 444.5,-170 444.5,-170 447.5,-170 450.5,-173 450.5,-176 450.5,-176 450.5,-182 450.5,-182 450.5,-185 447.5,-188 444.5,-188"/>
<text text-anchor="middle" x="423.5" y="-176.8" font-family="Helvetica,sans-Serif" font-size="9.00">index.ts</text>
</a>
</g>
</g>
<!-- src/client/admin/index.ts&#45;&gt;src/client/admin/Admin.tsx -->
<g id="edge1" class="edge"><title>src/client/admin/index.ts&#45;&gt;src/client/admin/Admin.tsx</title>
<path fill="none" stroke="black" d="M450.504,-179C468.479,-179 492.665,-179 512.69,-179"/>
<polygon fill="black" stroke="black" points="512.727,-182.5 522.727,-179 512.727,-175.5 512.727,-182.5"/>
</g>
<!-- src/client/app/App.spec.tsx -->
<g id="node7" class="node"><title>src/client/app/App.spec.tsx</title>
<g id="a_node7"><a xlink:href="src/client/app/App.spec.tsx" xlink:title="App.spec.tsx">
<path fill="#ffffcc" stroke="black" d="M94,-276C94,-276 38,-276 38,-276 35,-276 32,-273 32,-270 32,-270 32,-264 32,-264 32,-261 35,-258 38,-258 38,-258 94,-258 94,-258 97,-258 100,-261 100,-264 100,-264 100,-270 100,-270 100,-273 97,-276 94,-276"/>
<text text-anchor="middle" x="66" y="-264.8" font-family="Helvetica,sans-Serif" font-size="9.00">App.spec.tsx</text>
</a>
</g>
</g>
<!-- src/client/app/App.tsx -->
<g id="node8" class="node"><title>src/client/app/App.tsx</title>
<g id="a_node8"><a xlink:href="src/client/app/App.tsx" xlink:title="App.tsx">
<path fill="#ffffcc" stroke="black" d="M197,-262C197,-262 155,-262 155,-262 152,-262 149,-259 149,-256 149,-256 149,-250 149,-250 149,-247 152,-244 155,-244 155,-244 197,-244 197,-244 200,-244 203,-247 203,-250 203,-250 203,-256 203,-256 203,-259 200,-262 197,-262"/>
<text text-anchor="middle" x="176" y="-250.8" font-family="Helvetica,sans-Serif" font-size="9.00">App.tsx</text>
</a>
</g>
</g>
<!-- src/client/app/App.spec.tsx&#45;&gt;src/client/app/App.tsx -->
<g id="edge4" class="edge"><title>src/client/app/App.spec.tsx&#45;&gt;src/client/app/App.tsx</title>
<path fill="none" stroke="black" d="M100.285,-262.685C112.487,-261.104 126.352,-259.306 138.797,-257.693"/>
<polygon fill="black" stroke="black" points="139.383,-261.146 148.85,-256.39 138.483,-254.205 139.383,-261.146"/>
</g>
<!-- src/client/app/routes.ts -->
<g id="node12" class="node"><title>src/client/app/routes.ts</title>
<g id="a_node12"><a xlink:href="src/client/app/routes.ts" xlink:title="routes.ts">
<path fill="#ffffcc" stroke="black" d="M315,-262C315,-262 273,-262 273,-262 270,-262 267,-259 267,-256 267,-256 267,-250 267,-250 267,-247 270,-244 273,-244 273,-244 315,-244 315,-244 318,-244 321,-247 321,-250 321,-250 321,-256 321,-256 321,-259 318,-262 315,-262"/>
<text text-anchor="middle" x="294" y="-250.8" font-family="Helvetica,sans-Serif" font-size="9.00">routes.ts</text>
</a>
</g>
</g>
<!-- src/client/app/App.spec.tsx&#45;&gt;src/client/app/routes.ts -->
<g id="edge5" class="edge"><title>src/client/app/App.spec.tsx&#45;&gt;src/client/app/routes.ts</title>
<path fill="none" stroke="black" d="M100.241,-267.644C109.248,-267.791 118.997,-267.926 128,-268 167.11,-268.321 177.07,-271.757 216,-268 229.478,-266.699 244.101,-264.147 256.947,-261.51"/>
<polygon fill="black" stroke="black" points="257.765,-264.915 266.812,-259.401 256.301,-258.069 257.765,-264.915"/>
</g>
<!-- src/client/auth/index.ts -->
<g id="node17" class="node"><title>src/client/auth/index.ts</title>
<g id="a_node17"><a xlink:href="src/client/auth/index.ts" xlink:title="index.ts">
<path fill="#ffffcc" stroke="black" d="M572,-480C572,-480 530,-480 530,-480 527,-480 524,-477 524,-474 524,-474 524,-468 524,-468 524,-465 527,-462 530,-462 530,-462 572,-462 572,-462 575,-462 578,-465 578,-468 578,-468 578,-474 578,-474 578,-477 575,-480 572,-480"/>
<text text-anchor="middle" x="551" y="-468.8" font-family="Helvetica,sans-Serif" font-size="9.00">index.ts</text>
</a>
</g>
</g>
<!-- src/client/app/App.spec.tsx&#45;&gt;src/client/auth/index.ts -->
<g id="edge2" class="edge"><title>src/client/app/App.spec.tsx&#45;&gt;src/client/auth/index.ts</title>
<path fill="none" stroke="black" d="M96.9177,-276.063C98.4254,-277.221 99.8063,-278.527 101,-280 149.446,-339.774 70.705,-399.646 128,-451 156.362,-476.421 416.518,-473.757 513.65,-471.847"/>
<polygon fill="black" stroke="black" points="513.94,-475.342 523.866,-471.637 513.796,-468.343 513.94,-475.342"/>
</g>
<!-- src/client/root/index.ts -->
<g id="node37" class="node"><title>src/client/root/index.ts</title>
<g id="a_node37"><a xlink:href="src/client/root/index.ts" xlink:title="index.ts">
<path fill="#ffffcc" stroke="black" d="M197,-506C197,-506 155,-506 155,-506 152,-506 149,-503 149,-500 149,-500 149,-494 149,-494 149,-491 152,-488 155,-488 155,-488 197,-488 197,-488 200,-488 203,-491 203,-494 203,-494 203,-500 203,-500 203,-503 200,-506 197,-506"/>
<text text-anchor="middle" x="176" y="-494.8" font-family="Helvetica,sans-Serif" font-size="9.00">index.ts</text>
</a>
</g>
</g>
<!-- src/client/app/App.spec.tsx&#45;&gt;src/client/root/index.ts -->
<g id="edge3" class="edge"><title>src/client/app/App.spec.tsx&#45;&gt;src/client/root/index.ts</title>
<path fill="none" stroke="black" d="M96.9505,-276.036C98.4502,-277.201 99.8203,-278.516 101,-280 155.441,-348.493 76.08,-404.577 128,-475 131.128,-479.242 135.28,-482.694 139.826,-485.496"/>
<polygon fill="black" stroke="black" points="138.387,-488.692 148.886,-490.119 141.569,-482.456 138.387,-488.692"/>
</g>
<!-- src/client/app/App.tsx&#45;&gt;./app.styles -->
<g id="edge9" class="edge"><title>src/client/app/App.tsx&#45;&gt;./app.styles</title>
<path fill="none" stroke="black" d="M203.154,-246.432C207.861,-244.334 212.406,-241.587 216,-238 229.471,-224.557 270.929,-104.472 286.764,-57.6115"/>
<polygon fill="black" stroke="black" points="290.1,-58.673 289.973,-48.0789 283.465,-56.4399 290.1,-58.673"/>
</g>
<!-- src/client/app/App.tsx&#45;&gt;src/client/app/routes.ts -->
<g id="edge10" class="edge"><title>src/client/app/App.tsx&#45;&gt;src/client/app/routes.ts</title>
<path fill="none" stroke="black" d="M203.033,-253C218.743,-253 239.003,-253 256.319,-253"/>
<polygon fill="black" stroke="black" points="256.653,-256.5 266.653,-253 256.653,-249.5 256.653,-256.5"/>
</g>
<!-- src/client/globals.ts -->
<g id="node20" class="node"><title>src/client/globals.ts</title>
<g id="a_node20"><a xlink:href="src/client/globals.ts" xlink:title="globals.ts">
<path fill="#ffffcc" stroke="black" d="M316.5,-328C316.5,-328 271.5,-328 271.5,-328 268.5,-328 265.5,-325 265.5,-322 265.5,-322 265.5,-316 265.5,-316 265.5,-313 268.5,-310 271.5,-310 271.5,-310 316.5,-310 316.5,-310 319.5,-310 322.5,-313 322.5,-316 322.5,-316 322.5,-322 322.5,-322 322.5,-325 319.5,-328 316.5,-328"/>
<text text-anchor="middle" x="294" y="-316.8" font-family="Helvetica,sans-Serif" font-size="9.00">globals.ts</text>
</a>
</g>
</g>
<!-- src/client/app/App.tsx&#45;&gt;src/client/globals.ts -->
<g id="edge6" class="edge"><title>src/client/app/App.tsx&#45;&gt;src/client/globals.ts</title>
<path fill="none" stroke="black" d="M188.068,-262.154C202.18,-273.464 227.674,-292.715 252,-305 253.171,-305.591 254.372,-306.167 255.595,-306.726"/>
<polygon fill="black" stroke="black" points="254.642,-310.119 265.221,-310.687 257.306,-303.645 254.642,-310.119"/>
</g>
<!-- src/client/menu/Menu.tsx -->
<g id="node31" class="node"><title>src/client/menu/Menu.tsx</title>
<g id="a_node31"><a xlink:href="src/client/menu/Menu.tsx" xlink:title="Menu.tsx">
<path fill="#ffffcc" stroke="black" d="M315,-392C315,-392 273,-392 273,-392 270,-392 267,-389 267,-386 267,-386 267,-380 267,-380 267,-377 270,-374 273,-374 273,-374 315,-374 315,-374 318,-374 321,-377 321,-380 321,-380 321,-386 321,-386 321,-389 318,-392 315,-392"/>
<text text-anchor="middle" x="294" y="-380.8" font-family="Helvetica,sans-Serif" font-size="9.00">Menu.tsx</text>
</a>
</g>
</g>
<!-- src/client/app/App.tsx&#45;&gt;src/client/menu/Menu.tsx -->
<g id="edge7" class="edge"><title>src/client/app/App.tsx&#45;&gt;src/client/menu/Menu.tsx</title>
<path fill="none" stroke="black" d="M180.314,-262.137C188.743,-284.094 213.125,-340.207 252,-370 253.782,-371.366 255.71,-372.59 257.727,-373.687"/>
<polygon fill="black" stroke="black" points="256.383,-376.919 266.947,-377.727 259.193,-370.508 256.383,-376.919"/>
</g>
<!-- src/client/app/App.tsx&#45;&gt;src/client/root/index.ts -->
<g id="edge8" class="edge"><title>src/client/app/App.tsx&#45;&gt;src/client/root/index.ts</title>
<path fill="none" stroke="black" d="M166.827,-262.313C153.256,-276.818 128.421,-306.339 119,-337 114.627,-351.232 110.948,-458.476 119,-471 123.778,-478.43 131.261,-483.763 139.253,-487.581"/>
<polygon fill="black" stroke="black" points="138.152,-490.911 148.735,-491.403 140.768,-484.419 138.152,-490.911"/>
<path fill="none" stroke="black" d="M165.911,-262.057C150.346,-276.788 121.112,-307.664 110,-341 105.573,-354.282 102.421,-455.229 110,-467 116.708,-477.417 128.015,-484.259 139.394,-488.734"/>
<polygon fill="black" stroke="black" points="138.274,-492.05 148.869,-491.964 140.533,-485.425 138.274,-492.05"/>
</g>
<!-- src/client/app/app.domain.ts -->
<g id="node9" class="node"><title>src/client/app/app.domain.ts</title>
<g id="a_node9"><a xlink:href="src/client/app/app.domain.ts" xlink:title="app.domain.ts">
<path fill="#ffffcc" stroke="black" d="M208,-232C208,-232 144,-232 144,-232 141,-232 138,-229 138,-226 138,-226 138,-220 138,-220 138,-217 141,-214 144,-214 144,-214 208,-214 208,-214 211,-214 214,-217 214,-220 214,-220 214,-226 214,-226 214,-229 211,-232 208,-232"/>
<text text-anchor="middle" x="176" y="-220.8" font-family="Helvetica,sans-Serif" font-size="9.00">app.domain.ts</text>
</a>
</g>
</g>
<!-- src/client/app/app.reducer.ts -->
<g id="node10" class="node"><title>src/client/app/app.reducer.ts</title>
<g id="a_node10"><a xlink:href="src/client/app/app.reducer.ts" xlink:title="app.reducer.ts">
<path fill="#ffffcc" stroke="black" d="M208,-188C208,-188 144,-188 144,-188 141,-188 138,-185 138,-182 138,-182 138,-176 138,-176 138,-173 141,-170 144,-170 144,-170 208,-170 208,-170 211,-170 214,-173 214,-176 214,-176 214,-182 214,-182 214,-185 211,-188 208,-188"/>
<text text-anchor="middle" x="176" y="-176.8" font-family="Helvetica,sans-Serif" font-size="9.00">app.reducer.ts</text>
</a>
</g>
</g>
<!-- src/client/app/index.ts -->
<g id="node11" class="node"><title>src/client/app/index.ts</title>
<g id="a_node11"><a xlink:href="src/client/app/index.ts" xlink:title="index.ts">
<path fill="#ffffcc" stroke="black" d="M87,-232C87,-232 45,-232 45,-232 42,-232 39,-229 39,-226 39,-226 39,-220 39,-220 39,-217 42,-214 45,-214 45,-214 87,-214 87,-214 90,-214 93,-217 93,-220 93,-220 93,-226 93,-226 93,-229 90,-232 87,-232"/>
<text text-anchor="middle" x="66" y="-220.8" font-family="Helvetica,sans-Serif" font-size="9.00">index.ts</text>
</a>
</g>
</g>
<!-- src/client/app/index.ts&#45;&gt;src/client/app/App.tsx -->
<g id="edge11" class="edge"><title>src/client/app/index.ts&#45;&gt;src/client/app/App.tsx</title>
<path fill="none" stroke="black" d="M93.1438,-230.262C106.839,-234.066 123.826,-238.785 138.769,-242.936"/>
<polygon fill="black" stroke="black" points="138.151,-246.397 148.723,-245.701 140.024,-239.652 138.151,-246.397"/>
</g>
<!-- src/client/app/index.ts&#45;&gt;src/client/app/app.domain.ts -->
<g id="edge12" class="edge"><title>src/client/app/index.ts&#45;&gt;src/client/app/app.domain.ts</title>
<path fill="none" stroke="black" d="M93.1438,-223C103.477,-223 115.683,-223 127.472,-223"/>
<polygon fill="black" stroke="black" points="127.667,-226.5 137.667,-223 127.667,-219.5 127.667,-226.5"/>
</g>
<!-- src/client/app/index.ts&#45;&gt;src/client/app/app.reducer.ts -->
<g id="edge13" class="edge"><title>src/client/app/index.ts&#45;&gt;src/client/app/app.reducer.ts</title>
<path fill="none" stroke="black" d="M87.8118,-213.903C99.5656,-208.822 114.553,-202.439 128,-197 132.215,-195.295 136.658,-193.54 141.062,-191.825"/>
<polygon fill="black" stroke="black" points="142.468,-195.035 150.539,-188.171 139.949,-188.503 142.468,-195.035"/>
</g>
<!-- src/client/app/index.ts&#45;&gt;src/client/app/routes.ts -->
<g id="edge14" class="edge"><title>src/client/app/index.ts&#45;&gt;src/client/app/routes.ts</title>
<path fill="none" stroke="black" d="M93.0387,-214.781C123.15,-206.552 173.966,-196.618 216,-208 237.288,-213.764 258.724,-227.045 273.553,-237.694"/>
<polygon fill="black" stroke="black" points="271.763,-240.724 281.873,-243.893 275.945,-235.111 271.763,-240.724"/>
</g>
<!-- src/client/app/routes.ts&#45;&gt;src/client/admin/index.ts -->
<g id="edge15" class="edge"><title>src/client/app/routes.ts&#45;&gt;src/client/admin/index.ts</title>
<path fill="none" stroke="black" d="M310.634,-243.926C332.428,-231.277 372.16,-208.217 397.933,-193.258"/>
<polygon fill="black" stroke="black" points="399.846,-196.195 406.738,-188.148 396.332,-190.141 399.846,-196.195"/>
</g>
<!-- src/client/app/routes.ts&#45;&gt;src/client/auth/index.ts -->
<g id="edge16" class="edge"><title>src/client/app/routes.ts&#45;&gt;src/client/auth/index.ts</title>
<path fill="none" stroke="black" d="M321.216,-254.266C329.642,-256.006 338.268,-259.437 344,-266 391.142,-319.976 313.579,-375.074 364,-426 381.513,-443.688 450.929,-434.663 475,-441 490.824,-445.166 507.803,-451.766 521.598,-457.717"/>
<polygon fill="black" stroke="black" points="520.457,-461.039 531.018,-461.89 523.293,-454.639 520.457,-461.039"/>
</g>
<!-- src/client/home/index.ts -->
<g id="node28" class="node"><title>src/client/home/index.ts</title>
<g id="a_node28"><a xlink:href="src/client/home/index.ts" xlink:title="index.ts">
<path fill="#ffffcc" stroke="black" d="M444.5,-339C444.5,-339 402.5,-339 402.5,-339 399.5,-339 396.5,-336 396.5,-333 396.5,-333 396.5,-327 396.5,-327 396.5,-324 399.5,-321 402.5,-321 402.5,-321 444.5,-321 444.5,-321 447.5,-321 450.5,-324 450.5,-327 450.5,-327 450.5,-333 450.5,-333 450.5,-336 447.5,-339 444.5,-339"/>
<text text-anchor="middle" x="423.5" y="-327.8" font-family="Helvetica,sans-Serif" font-size="9.00">index.ts</text>
</a>
</g>
</g>
<!-- src/client/app/routes.ts&#45;&gt;src/client/home/index.ts -->
<g id="edge17" class="edge"><title>src/client/app/routes.ts&#45;&gt;src/client/home/index.ts</title>
<path fill="none" stroke="black" d="M321.061,-255.348C329.178,-257.197 337.655,-260.42 344,-266 361.664,-281.533 346.272,-299.541 364,-315 370.348,-320.536 378.473,-324.074 386.635,-326.324"/>
<polygon fill="black" stroke="black" points="385.974,-329.762 396.491,-328.477 387.468,-322.924 385.974,-329.762"/>
</g>
<!-- src/client/openings/index.ts -->
<g id="node36" class="node"><title>src/client/openings/index.ts</title>
<g id="a_node36"><a xlink:href="src/client/openings/index.ts" xlink:title="index.ts">
<path fill="#ffffcc" stroke="black" d="M444.5,-248C444.5,-248 402.5,-248 402.5,-248 399.5,-248 396.5,-245 396.5,-242 396.5,-242 396.5,-236 396.5,-236 396.5,-233 399.5,-230 402.5,-230 402.5,-230 444.5,-230 444.5,-230 447.5,-230 450.5,-233 450.5,-236 450.5,-236 450.5,-242 450.5,-242 450.5,-245 447.5,-248 444.5,-248"/>
<text text-anchor="middle" x="423.5" y="-236.8" font-family="Helvetica,sans-Serif" font-size="9.00">index.ts</text>
</a>
</g>
</g>
<!-- src/client/app/routes.ts&#45;&gt;src/client/openings/index.ts -->
<g id="edge18" class="edge"><title>src/client/app/routes.ts&#45;&gt;src/client/openings/index.ts</title>
<path fill="none" stroke="black" d="M321.109,-250.133C339.931,-248.066 365.574,-245.251 386.362,-242.968"/>
<polygon fill="black" stroke="black" points="386.868,-246.434 396.426,-241.863 386.103,-239.476 386.868,-246.434"/>
</g>
<!-- src/client/auth/auth.action.ts -->
<g id="node13" class="node"><title>src/client/auth/auth.action.ts</title>
<g id="a_node13"><a xlink:href="src/client/auth/auth.action.ts" xlink:title="auth.action.ts">
<path fill="#ffffcc" stroke="black" d="M841.5,-480C841.5,-480 782.5,-480 782.5,-480 779.5,-480 776.5,-477 776.5,-474 776.5,-474 776.5,-468 776.5,-468 776.5,-465 779.5,-462 782.5,-462 782.5,-462 841.5,-462 841.5,-462 844.5,-462 847.5,-465 847.5,-468 847.5,-468 847.5,-474 847.5,-474 847.5,-477 844.5,-480 841.5,-480"/>
<text text-anchor="middle" x="812" y="-468.8" font-family="Helvetica,sans-Serif" font-size="9.00">auth.action.ts</text>
</a>
</g>
</g>
<!-- src/client/auth/auth.domain.ts -->
<g id="node14" class="node"><title>src/client/auth/auth.domain.ts</title>
<g id="a_node14"><a xlink:href="src/client/auth/auth.domain.ts" xlink:title="auth.domain.ts">
<path fill="#ffffcc" stroke="black" d="M845,-513C845,-513 779,-513 779,-513 776,-513 773,-510 773,-507 773,-507 773,-501 773,-501 773,-498 776,-495 779,-495 779,-495 845,-495 845,-495 848,-495 851,-498 851,-501 851,-501 851,-507 851,-507 851,-510 848,-513 845,-513"/>
<text text-anchor="middle" x="812" y="-501.8" font-family="Helvetica,sans-Serif" font-size="9.00">auth.domain.ts</text>
</a>
</g>
</g>
<!-- src/client/auth/auth.reducer.ts -->
<g id="node15" class="node"><title>src/client/auth/auth.reducer.ts</title>
<g id="a_node15"><a xlink:href="src/client/auth/auth.reducer.ts" xlink:title="auth.reducer.ts">
<path fill="#ffffcc" stroke="black" d="M715,-458C715,-458 649,-458 649,-458 646,-458 643,-455 643,-452 643,-452 643,-446 643,-446 643,-443 646,-440 649,-440 649,-440 715,-440 715,-440 718,-440 721,-443 721,-446 721,-446 721,-452 721,-452 721,-455 718,-458 715,-458"/>
<text text-anchor="middle" x="682" y="-446.8" font-family="Helvetica,sans-Serif" font-size="9.00">auth.reducer.ts</text>
</a>
</g>
</g>
<!-- src/client/auth/auth.reducer.ts&#45;&gt;src/client/auth/auth.action.ts -->
<g id="edge19" class="edge"><title>src/client/auth/auth.reducer.ts&#45;&gt;src/client/auth/auth.action.ts</title>
<path fill="none" stroke="black" d="M721.058,-455.541C735.308,-457.99 751.624,-460.795 766.413,-463.337"/>
<polygon fill="black" stroke="black" points="765.914,-466.802 776.363,-465.047 767.1,-459.903 765.914,-466.802"/>
</g>
<!-- src/client/auth/auth.saga.ts -->
<g id="node16" class="node"><title>src/client/auth/auth.saga.ts</title>
<g id="a_node16"><a xlink:href="src/client/auth/auth.saga.ts" xlink:title="auth.saga.ts">
<path fill="#ffffcc" stroke="black" d="M710,-516C710,-516 654,-516 654,-516 651,-516 648,-513 648,-510 648,-510 648,-504 648,-504 648,-501 651,-498 654,-498 654,-498 710,-498 710,-498 713,-498 716,-501 716,-504 716,-504 716,-510 716,-510 716,-513 713,-516 710,-516"/>
<text text-anchor="middle" x="682" y="-504.8" font-family="Helvetica,sans-Serif" font-size="9.00">auth.saga.ts</text>
</a>
</g>
</g>
<!-- src/client/auth/auth.saga.ts&#45;&gt;src/client/auth/auth.action.ts -->
<g id="edge20" class="edge"><title>src/client/auth/auth.saga.ts&#45;&gt;src/client/auth/auth.action.ts</title>
<path fill="none" stroke="black" d="M715.3,-497.916C731.52,-493.354 751.375,-487.77 768.787,-482.872"/>
<polygon fill="black" stroke="black" points="770.032,-486.158 778.711,-480.081 768.136,-479.42 770.032,-486.158"/>
</g>
<!-- src/client/auth/auth.saga.ts&#45;&gt;src/client/auth/auth.domain.ts -->
<g id="edge21" class="edge"><title>src/client/auth/auth.saga.ts&#45;&gt;src/client/auth/auth.domain.ts</title>
<path fill="none" stroke="black" d="M716.296,-506.22C730.38,-505.89 747.062,-505.499 762.472,-505.137"/>
<polygon fill="black" stroke="black" points="762.974,-508.627 772.89,-504.893 762.81,-501.629 762.974,-508.627"/>
</g>
<!-- src/client/auth/index.ts&#45;&gt;src/client/auth/auth.action.ts -->
<g id="edge22" class="edge"><title>src/client/auth/index.ts&#45;&gt;src/client/auth/auth.action.ts</title>
<path fill="none" stroke="black" d="M578.26,-471C622.358,-471 711.781,-471 766.038,-471"/>
<polygon fill="black" stroke="black" points="766.069,-474.5 776.069,-471 766.069,-467.5 766.069,-474.5"/>
</g>
<!-- src/client/auth/index.ts&#45;&gt;src/client/auth/auth.domain.ts -->
<g id="edge23" class="edge"><title>src/client/auth/index.ts&#45;&gt;src/client/auth/auth.domain.ts</title>
<path fill="none" stroke="black" d="M578.298,-473.261C615.512,-476.597 685.628,-483.384 745,-492 750.759,-492.836 756.785,-493.802 762.753,-494.817"/>
<polygon fill="black" stroke="black" points="762.233,-498.279 772.686,-496.555 763.439,-491.384 762.233,-498.279"/>
</g>
<!-- src/client/auth/index.ts&#45;&gt;src/client/auth/auth.reducer.ts -->
<g id="edge24" class="edge"><title>src/client/auth/index.ts&#45;&gt;src/client/auth/auth.reducer.ts</title>
<path fill="none" stroke="black" d="M578.105,-466.548C593.759,-463.878 614.156,-460.4 632.658,-457.244"/>
<polygon fill="black" stroke="black" points="633.43,-460.663 642.7,-455.532 632.253,-453.763 633.43,-460.663"/>
</g>
<!-- src/client/auth/index.ts&#45;&gt;src/client/auth/auth.saga.ts -->
<g id="edge25" class="edge"><title>src/client/auth/index.ts&#45;&gt;src/client/auth/auth.saga.ts</title>
<path fill="none" stroke="black" d="M578.105,-478.285C595.488,-483.136 618.72,-489.62 638.71,-495.198"/>
<polygon fill="black" stroke="black" points="637.948,-498.619 648.521,-497.936 639.83,-491.877 637.948,-498.619"/>
</g>
<!-- src/client/common/board/Board.tsx -->
<g id="node18" class="node"><title>src/client/common/board/Board.tsx</title>
<g id="a_node18"><a xlink:href="src/client/common/board/Board.tsx" xlink:title="Board.tsx">
<path fill="#ffffcc" stroke="black" d="M703.5,-209C703.5,-209 660.5,-209 660.5,-209 657.5,-209 654.5,-206 654.5,-203 654.5,-203 654.5,-197 654.5,-197 654.5,-194 657.5,-191 660.5,-191 660.5,-191 703.5,-191 703.5,-191 706.5,-191 709.5,-194 709.5,-197 709.5,-197 709.5,-203 709.5,-203 709.5,-206 706.5,-209 703.5,-209"/>
<text text-anchor="middle" x="682" y="-197.8" font-family="Helvetica,sans-Serif" font-size="9.00">Board.tsx</text>
</a>
</g>
</g>
<!-- src/client/common/board/Pieces.tsx -->
<g id="node19" class="node"><title>src/client/common/board/Pieces.tsx</title>
<g id="a_node19"><a xlink:href="src/client/common/board/Pieces.tsx" xlink:title="Pieces.tsx">
<path fill="#ffffcc" stroke="black" d="M835.5,-209C835.5,-209 788.5,-209 788.5,-209 785.5,-209 782.5,-206 782.5,-203 782.5,-203 782.5,-197 782.5,-197 782.5,-194 785.5,-191 788.5,-191 788.5,-191 835.5,-191 835.5,-191 838.5,-191 841.5,-194 841.5,-197 841.5,-197 841.5,-203 841.5,-203 841.5,-206 838.5,-209 835.5,-209"/>
<text text-anchor="middle" x="812" y="-197.8" font-family="Helvetica,sans-Serif" font-size="9.00">Pieces.tsx</text>
</a>
</g>
</g>
<!-- src/client/common/board/Board.tsx&#45;&gt;src/client/common/board/Pieces.tsx -->
<g id="edge27" class="edge"><title>src/client/common/board/Board.tsx&#45;&gt;src/client/common/board/Pieces.tsx</title>
<path fill="none" stroke="black" d="M709.522,-200C727.605,-200 751.852,-200 772.11,-200"/>
<polygon fill="black" stroke="black" points="772.287,-203.5 782.287,-200 772.287,-196.5 772.287,-203.5"/>
</g>
<!-- src/shared/domain.ts -->
<g id="node47" class="node"><title>src/shared/domain.ts</title>
<g id="a_node47"><a xlink:href="src/shared/domain.ts" xlink:title="domain.ts">
<path fill="#ffffcc" stroke="black" d="M835,-120C835,-120 789,-120 789,-120 786,-120 783,-117 783,-114 783,-114 783,-108 783,-108 783,-105 786,-102 789,-102 789,-102 835,-102 835,-102 838,-102 841,-105 841,-108 841,-108 841,-114 841,-114 841,-117 838,-120 835,-120"/>
<text text-anchor="middle" x="812" y="-108.8" font-family="Helvetica,sans-Serif" font-size="9.00">domain.ts</text>
</a>
</g>
</g>
<!-- src/client/common/board/Board.tsx&#45;&gt;src/shared/domain.ts -->
<g id="edge26" class="edge"><title>src/client/common/board/Board.tsx&#45;&gt;src/shared/domain.ts</title>
<path fill="none" stroke="black" d="M696.216,-190.811C718.368,-175.408 763.172,-144.255 789.78,-125.755"/>
<polygon fill="black" stroke="black" points="791.834,-128.589 798.046,-120.007 787.838,-122.842 791.834,-128.589"/>
</g>
<!-- src/client/home/Home.spec.tsx -->
<g id="node21" class="node"><title>src/client/home/Home.spec.tsx</title>
<g id="a_node21"><a xlink:href="src/client/home/Home.spec.tsx" xlink:title="Home.spec.tsx">
<path fill="#ffffcc" stroke="black" d="M456.5,-309C456.5,-309 390.5,-309 390.5,-309 387.5,-309 384.5,-306 384.5,-303 384.5,-303 384.5,-297 384.5,-297 384.5,-294 387.5,-291 390.5,-291 390.5,-291 456.5,-291 456.5,-291 459.5,-291 462.5,-294 462.5,-297 462.5,-297 462.5,-303 462.5,-303 462.5,-306 459.5,-309 456.5,-309"/>
<text text-anchor="middle" x="423.5" y="-297.8" font-family="Helvetica,sans-Serif" font-size="9.00">Home.spec.tsx</text>
</a>
</g>
</g>
<!-- src/client/home/Home.tsx -->
<g id="node22" class="node"><title>src/client/home/Home.tsx</title>
<g id="a_node22"><a xlink:href="src/client/home/Home.tsx" xlink:title="Home.tsx">
<path fill="#ffffcc" stroke="black" d="M573,-309C573,-309 529,-309 529,-309 526,-309 523,-306 523,-303 523,-303 523,-297 523,-297 523,-294 526,-291 529,-291 529,-291 573,-291 573,-291 576,-291 579,-294 579,-297 579,-297 579,-303 579,-303 579,-306 576,-309 573,-309"/>
<text text-anchor="middle" x="551" y="-297.8" font-family="Helvetica,sans-Serif" font-size="9.00">Home.tsx</text>
</a>
</g>
</g>
<!-- src/client/home/Home.spec.tsx&#45;&gt;src/client/home/Home.tsx -->
<g id="edge28" class="edge"><title>src/client/home/Home.spec.tsx&#45;&gt;src/client/home/Home.tsx</title>
<path fill="none" stroke="black" d="M462.836,-300C478.532,-300 496.643,-300 512.276,-300"/>
<polygon fill="black" stroke="black" points="512.643,-303.5 522.643,-300 512.643,-296.5 512.643,-303.5"/>
</g>
<!-- src/client/home/home.action.ts -->
<g id="node23" class="node"><title>src/client/home/home.action.ts</title>
<g id="a_node23"><a xlink:href="src/client/home/home.action.ts" xlink:title="home.action.ts">
<path fill="#ffffcc" stroke="black" d="M714.5,-345C714.5,-345 649.5,-345 649.5,-345 646.5,-345 643.5,-342 643.5,-339 643.5,-339 643.5,-333 643.5,-333 643.5,-330 646.5,-327 649.5,-327 649.5,-327 714.5,-327 714.5,-327 717.5,-327 720.5,-330 720.5,-333 720.5,-333 720.5,-339 720.5,-339 720.5,-342 717.5,-345 714.5,-345"/>
<text text-anchor="middle" x="682" y="-333.8" font-family="Helvetica,sans-Serif" font-size="9.00">home.action.ts</text>
</a>
</g>
</g>
<!-- src/client/home/Home.tsx&#45;&gt;src/client/home/home.action.ts -->
<g id="edge29" class="edge"><title>src/client/home/Home.tsx&#45;&gt;src/client/home/home.action.ts</title>
<path fill="none" stroke="black" d="M579.043,-307.547C596.36,-312.38 619.191,-318.751 638.857,-324.239"/>
<polygon fill="black" stroke="black" points="637.939,-327.617 648.512,-326.933 639.82,-320.874 637.939,-327.617"/>
</g>
<!-- src/client/home/home.worker&#45;factory.ts -->
<g id="node25" class="node"><title>src/client/home/home.worker&#45;factory.ts</title>
<g id="a_node25"><a xlink:href="src/client/home/home.worker-factory.ts" xlink:title="home.worker&#45;factory.ts">
<path fill="#ffffcc" stroke="black" d="M731,-312C731,-312 633,-312 633,-312 630,-312 627,-309 627,-306 627,-306 627,-300 627,-300 627,-297 630,-294 633,-294 633,-294 731,-294 731,-294 734,-294 737,-297 737,-300 737,-300 737,-306 737,-306 737,-309 734,-312 731,-312"/>
<text text-anchor="middle" x="682" y="-300.8" font-family="Helvetica,sans-Serif" font-size="9.00">home.worker&#45;factory.ts</text>
</a>
</g>
</g>
<!-- src/client/home/Home.tsx&#45;&gt;src/client/home/home.worker&#45;factory.ts -->
<g id="edge30" class="edge"><title>src/client/home/Home.tsx&#45;&gt;src/client/home/home.worker&#45;factory.ts</title>
<path fill="none" stroke="black" d="M579.043,-300.629C590.111,-300.886 603.431,-301.196 616.738,-301.506"/>
<polygon fill="black" stroke="black" points="616.795,-305.008 626.874,-301.741 616.958,-298.01 616.795,-305.008"/>
</g>
<!-- src/client/home/home.saga.ts -->
<g id="node24" class="node"><title>src/client/home/home.saga.ts</title>
<g id="a_node24"><a xlink:href="src/client/home/home.saga.ts" xlink:title="home.saga.ts">
<path fill="#ffffcc" stroke="black" d="M582,-397C582,-397 520,-397 520,-397 517,-397 514,-394 514,-391 514,-391 514,-385 514,-385 514,-382 517,-379 520,-379 520,-379 582,-379 582,-379 585,-379 588,-382 588,-385 588,-385 588,-391 588,-391 588,-394 585,-397 582,-397"/>
<text text-anchor="middle" x="551" y="-385.8" font-family="Helvetica,sans-Serif" font-size="9.00">home.saga.ts</text>
</a>
</g>
</g>
<!-- src/client/home/home.saga.ts&#45;&gt;src/client/home/home.action.ts -->
<g id="edge31" class="edge"><title>src/client/home/home.saga.ts&#45;&gt;src/client/home/home.action.ts</title>
<path fill="none" stroke="black" d="M578.623,-378.902C583.907,-377.013 589.397,-374.99 594.5,-373 613.709,-365.511 635.005,-356.412 651.66,-349.111"/>
<polygon fill="black" stroke="black" points="653.141,-352.283 660.879,-345.046 650.317,-345.878 653.141,-352.283"/>
</g>
<!-- src/client/home/home.worker.js -->
<g id="node26" class="node"><title>src/client/home/home.worker.js</title>
<g id="a_node26"><a xlink:href="src/client/home/home.worker.js" xlink:title="home.worker.js">
<path fill="#ffffcc" stroke="black" d="M585,-367C585,-367 517,-367 517,-367 514,-367 511,-364 511,-361 511,-361 511,-355 511,-355 511,-352 514,-349 517,-349 517,-349 585,-349 585,-349 588,-349 591,-352 591,-355 591,-355 591,-361 591,-361 591,-364 588,-367 585,-367"/>
<text text-anchor="middle" x="551" y="-355.8" font-family="Helvetica,sans-Serif" font-size="9.00">home.worker.js</text>
</a>
</g>
</g>
<!-- src/client/home/home.worker.spec.ts -->
<g id="node27" class="node"><title>src/client/home/home.worker.spec.ts</title>
<g id="a_node27"><a xlink:href="src/client/home/home.worker.spec.ts" xlink:title="home.worker.spec.ts">
<path fill="#ffffcc" stroke="black" d="M469,-369C469,-369 378,-369 378,-369 375,-369 372,-366 372,-363 372,-363 372,-357 372,-357 372,-354 375,-351 378,-351 378,-351 469,-351 469,-351 472,-351 475,-354 475,-357 475,-357 475,-363 475,-363 475,-366 472,-369 469,-369"/>
<text text-anchor="middle" x="423.5" y="-357.8" font-family="Helvetica,sans-Serif" font-size="9.00">home.worker.spec.ts</text>
</a>
</g>
</g>
<!-- src/client/home/home.worker.spec.ts&#45;&gt;src/client/home/home.worker.js -->
<g id="edge32" class="edge"><title>src/client/home/home.worker.spec.ts&#45;&gt;src/client/home/home.worker.js</title>
<path fill="none" stroke="black" d="M475.184,-359.192C483.599,-359.058 492.316,-358.919 500.696,-358.786"/>
<polygon fill="black" stroke="black" points="500.766,-362.285 510.709,-358.626 500.655,-355.286 500.766,-362.285"/>
</g>
<!-- src/client/home/index.ts&#45;&gt;src/client/home/Home.tsx -->
<g id="edge33" class="edge"><title>src/client/home/index.ts&#45;&gt;src/client/home/Home.tsx</title>
<path fill="none" stroke="black" d="M450.504,-323.784C468.561,-319.467 492.887,-313.653 512.965,-308.853"/>
<polygon fill="black" stroke="black" points="513.815,-312.248 522.727,-306.519 512.188,-305.44 513.815,-312.248"/>
</g>
<!-- src/client/home/index.ts&#45;&gt;src/client/home/home.action.ts -->
<g id="edge34" class="edge"><title>src/client/home/index.ts&#45;&gt;src/client/home/home.action.ts</title>
<path fill="none" stroke="black" d="M450.506,-330.608C493.341,-331.61 579.358,-333.622 633.343,-334.885"/>
<polygon fill="black" stroke="black" points="633.282,-338.385 643.361,-335.12 633.446,-331.387 633.282,-338.385"/>
</g>
<!-- src/client/home/index.ts&#45;&gt;src/client/home/home.saga.ts -->
<g id="edge35" class="edge"><title>src/client/home/index.ts&#45;&gt;src/client/home/home.saga.ts</title>
<path fill="none" stroke="black" d="M450.648,-335.769C458.702,-338.068 467.435,-341.111 475,-345 493.027,-354.268 493.35,-363.032 511,-373 511.947,-373.535 512.918,-374.059 513.905,-374.571"/>
<polygon fill="black" stroke="black" points="512.545,-377.799 523.088,-378.85 515.502,-371.454 512.545,-377.799"/>
</g>
<!-- src/client/home/index.ts&#45;&gt;src/client/home/home.worker&#45;factory.ts -->
<g id="edge36" class="edge"><title>src/client/home/index.ts&#45;&gt;src/client/home/home.worker&#45;factory.ts</title>
<path fill="none" stroke="black" d="M450.751,-328.092C484.184,-325.568 543.716,-320.759 594.5,-315 601.646,-314.19 609.114,-313.267 616.539,-312.303"/>
<polygon fill="black" stroke="black" points="617.151,-315.752 626.604,-310.968 616.23,-308.813 617.151,-315.752"/>
</g>
<!-- src/client/index.ts -->
<g id="node29" class="node"><title>src/client/index.ts</title>
<g id="a_node29"><a xlink:href="src/client/index.ts" xlink:title="index.ts">
<path fill="#ffffcc" stroke="black" d="M87,-566C87,-566 45,-566 45,-566 42,-566 39,-563 39,-560 39,-560 39,-554 39,-554 39,-551 42,-548 45,-548 45,-548 87,-548 87,-548 90,-548 93,-551 93,-554 93,-554 93,-560 93,-560 93,-563 90,-566 87,-566"/>
<text text-anchor="middle" x="66" y="-554.8" font-family="Helvetica,sans-Serif" font-size="9.00">index.ts</text>
</a>
</g>
</g>
<!-- src/client/root/root.tsx -->
<g id="node43" class="node"><title>src/client/root/root.tsx</title>
<g id="a_node43"><a xlink:href="src/client/root/root.tsx" xlink:title="root.tsx">
<path fill="#ffffcc" stroke="black" d="M197,-566C197,-566 155,-566 155,-566 152,-566 149,-563 149,-560 149,-560 149,-554 149,-554 149,-551 152,-548 155,-548 155,-548 197,-548 197,-548 200,-548 203,-551 203,-554 203,-554 203,-560 203,-560 203,-563 200,-566 197,-566"/>
<text text-anchor="middle" x="176" y="-554.8" font-family="Helvetica,sans-Serif" font-size="9.00">root.tsx</text>
</a>
</g>
</g>
<!-- src/client/index.ts&#45;&gt;src/client/root/root.tsx -->
<g id="edge37" class="edge"><title>src/client/index.ts&#45;&gt;src/client/root/root.tsx</title>
<path fill="none" stroke="black" d="M93.1438,-557C106.707,-557 123.499,-557 138.338,-557"/>
<polygon fill="black" stroke="black" points="138.723,-560.5 148.723,-557 138.723,-553.5 138.723,-560.5"/>
</g>
<!-- src/client/menu/Menu.spec.tsx -->
<g id="node30" class="node"><title>src/client/menu/Menu.spec.tsx</title>
<g id="a_node30"><a xlink:href="src/client/menu/Menu.spec.tsx" xlink:title="Menu.spec.tsx">
<path fill="#ffffcc" stroke="black" d="M207.5,-392C207.5,-392 144.5,-392 144.5,-392 141.5,-392 138.5,-389 138.5,-386 138.5,-386 138.5,-380 138.5,-380 138.5,-377 141.5,-374 144.5,-374 144.5,-374 207.5,-374 207.5,-374 210.5,-374 213.5,-377 213.5,-380 213.5,-380 213.5,-386 213.5,-386 213.5,-389 210.5,-392 207.5,-392"/>
<text text-anchor="middle" x="176" y="-380.8" font-family="Helvetica,sans-Serif" font-size="9.00">Menu.spec.tsx</text>
</a>
</g>
</g>
<!-- src/client/menu/Menu.spec.tsx&#45;&gt;src/client/menu/Menu.tsx -->
<g id="edge39" class="edge"><title>src/client/menu/Menu.spec.tsx&#45;&gt;src/client/menu/Menu.tsx</title>
<path fill="none" stroke="black" d="M213.703,-383C227.455,-383 243.063,-383 256.772,-383"/>
<polygon fill="black" stroke="black" points="256.823,-386.5 266.823,-383 256.823,-379.5 256.823,-386.5"/>
</g>
<!-- src/client/menu/Menu.spec.tsx&#45;&gt;src/client/root/index.ts -->
<g id="edge38" class="edge"><title>src/client/menu/Menu.spec.tsx&#45;&gt;src/client/root/index.ts</title>
<path fill="none" stroke="black" d="M138.295,-387.506C128.868,-390.592 119.91,-395.675 114.5,-404 98.7581,-428.223 98.8674,-444.706 114.5,-469 120.213,-477.879 129.511,-483.976 139.166,-488.149"/>
<polygon fill="black" stroke="black" points="138.228,-491.533 148.821,-491.713 140.652,-484.966 138.228,-491.533"/>
</g>
<!-- src/client/menu/Menu.tsx&#45;&gt;src/client/auth/index.ts -->
<g id="edge40" class="edge"><title>src/client/menu/Menu.tsx&#45;&gt;src/client/auth/index.ts</title>
<path fill="none" stroke="black" d="M321.171,-386.786C329.202,-388.991 337.6,-392.48 344,-398 359.656,-411.504 347.488,-427.558 364,-440 387.031,-457.355 466.452,-465.504 513.743,-468.9"/>
<polygon fill="black" stroke="black" points="513.668,-472.402 523.883,-469.59 514.144,-465.419 513.668,-472.402"/>
</g>
<!-- src/client/menu/index.ts -->
<g id="node32" class="node"><title>src/client/menu/index.ts</title>
<g id="a_node32"><a xlink:href="src/client/menu/index.ts" xlink:title="index.ts">
<path fill="#ffffcc" stroke="black" d="M197,-422C197,-422 155,-422 155,-422 152,-422 149,-419 149,-416 149,-416 149,-410 149,-410 149,-407 152,-404 155,-404 155,-404 197,-404 197,-404 200,-404 203,-407 203,-410 203,-410 203,-416 203,-416 203,-419 200,-422 197,-422"/>
<text text-anchor="middle" x="176" y="-410.8" font-family="Helvetica,sans-Serif" font-size="9.00">index.ts</text>
</a>
</g>
</g>
<!-- src/client/menu/index.ts&#45;&gt;src/client/menu/Menu.tsx -->
<g id="edge41" class="edge"><title>src/client/menu/index.ts&#45;&gt;src/client/menu/Menu.tsx</title>
<path fill="none" stroke="black" d="M203.033,-406.267C218.891,-402.166 239.386,-396.866 256.808,-392.36"/>
<polygon fill="black" stroke="black" points="257.848,-395.706 266.653,-389.814 256.095,-388.929 257.848,-395.706"/>
</g>
<!-- src/client/menu/menu.domain.ts -->
<g id="node33" class="node"><title>src/client/menu/menu.domain.ts</title>
<g id="a_node33"><a xlink:href="src/client/menu/menu.domain.ts" xlink:title="menu.domain.ts">
<path fill="#ffffcc" stroke="black" d="M330,-422C330,-422 258,-422 258,-422 255,-422 252,-419 252,-416 252,-416 252,-410 252,-410 252,-407 255,-404 258,-404 258,-404 330,-404 330,-404 333,-404 336,-407 336,-410 336,-410 336,-416 336,-416 336,-419 333,-422 330,-422"/>
<text text-anchor="middle" x="294" y="-410.8" font-family="Helvetica,sans-Serif" font-size="9.00">menu.domain.ts</text>
</a>
</g>
</g>
<!-- src/client/menu/index.ts&#45;&gt;src/client/menu/menu.domain.ts -->
<g id="edge42" class="edge"><title>src/client/menu/index.ts&#45;&gt;src/client/menu/menu.domain.ts</title>
<path fill="none" stroke="black" d="M203.033,-413C214.424,-413 228.207,-413 241.526,-413"/>
<polygon fill="black" stroke="black" points="241.573,-416.5 251.573,-413 241.573,-409.5 241.573,-416.5"/>
</g>
<!-- src/client/menu/menu.fixture.tsx -->
<g id="node34" class="node"><title>src/client/menu/menu.fixture.tsx</title>
<g id="a_node34"><a xlink:href="src/client/menu/menu.fixture.tsx" xlink:title="menu.fixture.tsx">
<path fill="#ffffcc" stroke="black" d="M210,-362C210,-362 142,-362 142,-362 139,-362 136,-359 136,-356 136,-356 136,-350 136,-350 136,-347 139,-344 142,-344 142,-344 210,-344 210,-344 213,-344 216,-347 216,-350 216,-350 216,-356 216,-356 216,-359 213,-362 210,-362"/>
<text text-anchor="middle" x="176" y="-350.8" font-family="Helvetica,sans-Serif" font-size="9.00">menu.fixture.tsx</text>
</a>
</g>
</g>
<!-- src/client/menu/menu.fixture.tsx&#45;&gt;src/client/menu/Menu.tsx -->
<g id="edge43" class="edge"><title>src/client/menu/menu.fixture.tsx&#45;&gt;src/client/menu/Menu.tsx</title>
<path fill="none" stroke="black" d="M211.804,-362.001C225.981,-365.667 242.372,-369.907 256.699,-373.612"/>
<polygon fill="black" stroke="black" points="256.147,-377.084 266.705,-376.2 257.9,-370.307 256.147,-377.084"/>
</g>
<!-- src/client/openings/Openings.tsx -->
<g id="node35" class="node"><title>src/client/openings/Openings.tsx</title>
<g id="a_node35"><a xlink:href="src/client/openings/Openings.tsx" xlink:title="Openings.tsx">
<path fill="#ffffcc" stroke="black" d="M580.5,-248C580.5,-248 521.5,-248 521.5,-248 518.5,-248 515.5,-245 515.5,-242 515.5,-242 515.5,-236 515.5,-236 515.5,-233 518.5,-230 521.5,-230 521.5,-230 580.5,-230 580.5,-230 583.5,-230 586.5,-233 586.5,-236 586.5,-236 586.5,-242 586.5,-242 586.5,-245 583.5,-248 580.5,-248"/>
<text text-anchor="middle" x="551" y="-236.8" font-family="Helvetica,sans-Serif" font-size="9.00">Openings.tsx</text>
</a>
</g>
</g>
<!-- src/client/openings/Openings.tsx&#45;&gt;./openings.styles -->
<g id="edge46" class="edge"><title>src/client/openings/Openings.tsx&#45;&gt;./openings.styles</title>
<path fill="none" stroke="black" d="M578.503,-229.847C584.54,-226.634 590.381,-222.427 594.5,-217 637.319,-160.588 581.665,-115.411 627,-61 629.552,-57.9377 632.596,-55.2969 635.92,-53.0205"/>
<polygon fill="black" stroke="black" points="637.667,-56.0539 644.643,-48.0797 634.217,-49.9632 637.667,-56.0539"/>
</g>
<!-- src/client/openings/Openings.tsx&#45;&gt;src/client/common/board/Board.tsx -->
<g id="edge45" class="edge"><title>src/client/openings/Openings.tsx&#45;&gt;src/client/common/board/Board.tsx</title>
<path fill="none" stroke="black" d="M581.919,-229.955C600.639,-224.295 624.876,-216.968 644.693,-210.977"/>
<polygon fill="black" stroke="black" points="645.751,-214.313 654.31,-208.069 643.725,-207.613 645.751,-214.313"/>
</g>
<!-- src/client/openings/Openings.tsx&#45;&gt;src/shared/domain.ts -->
<g id="edge44" class="edge"><title>src/client/openings/Openings.tsx&#45;&gt;src/shared/domain.ts</title>
<path fill="none" stroke="black" d="M573.255,-229.937C580.356,-226.417 588.087,-222.017 594.5,-217 611.739,-203.514 608.99,-192.438 627,-180 672.355,-148.677 733.748,-129.408 772.871,-119.454"/>
<polygon fill="black" stroke="black" points="773.927,-122.798 782.799,-117.007 772.252,-116.002 773.927,-122.798"/>
</g>
<!-- src/client/openings/index.ts&#45;&gt;src/client/openings/Openings.tsx -->
<g id="edge47" class="edge"><title>src/client/openings/index.ts&#45;&gt;src/client/openings/Openings.tsx</title>
<path fill="none" stroke="black" d="M450.504,-239C466.302,-239 486.898,-239 505.249,-239"/>
<polygon fill="black" stroke="black" points="505.455,-242.5 515.455,-239 505.455,-235.5 505.455,-242.5"/>
</g>
<!-- src/client/root/root.domain.ts -->
<g id="node38" class="node"><title>src/client/root/root.domain.ts</title>
<g id="a_node38"><a xlink:href="src/client/root/root.domain.ts" xlink:title="root.domain.ts">
<path fill="#ffffcc" stroke="black" d="M326,-506C326,-506 262,-506 262,-506 259,-506 256,-503 256,-500 256,-500 256,-494 256,-494 256,-491 259,-488 262,-488 262,-488 326,-488 326,-488 329,-488 332,-491 332,-494 332,-494 332,-500 332,-500 332,-503 329,-506 326,-506"/>
<text text-anchor="middle" x="294" y="-494.8" font-family="Helvetica,sans-Serif" font-size="9.00">root.domain.ts</text>
</a>
</g>
</g>
<!-- src/client/root/index.ts&#45;&gt;src/client/root/root.domain.ts -->
<g id="edge48" class="edge"><title>src/client/root/index.ts&#45;&gt;src/client/root/root.domain.ts</title>
<path fill="none" stroke="black" d="M203.033,-497C215.503,-497 230.841,-497 245.297,-497"/>
<polygon fill="black" stroke="black" points="245.613,-500.5 255.613,-497 245.613,-493.5 245.613,-500.5"/>
</g>
<!-- src/client/root/root.reducer.ts -->
<g id="node39" class="node"><title>src/client/root/root.reducer.ts</title>
<g id="a_node39"><a xlink:href="src/client/root/root.reducer.ts" xlink:title="root.reducer.ts">
<path fill="#ffffcc" stroke="black" d="M455.5,-520C455.5,-520 391.5,-520 391.5,-520 388.5,-520 385.5,-517 385.5,-514 385.5,-514 385.5,-508 385.5,-508 385.5,-505 388.5,-502 391.5,-502 391.5,-502 455.5,-502 455.5,-502 458.5,-502 461.5,-505 461.5,-508 461.5,-508 461.5,-514 461.5,-514 461.5,-517 458.5,-520 455.5,-520"/>
<text text-anchor="middle" x="423.5" y="-508.8" font-family="Helvetica,sans-Serif" font-size="9.00">root.reducer.ts</text>
</a>
</g>
</g>
<!-- src/client/root/index.ts&#45;&gt;src/client/root/root.reducer.ts -->
<g id="edge49" class="edge"><title>src/client/root/index.ts&#45;&gt;src/client/root/root.reducer.ts</title>
<path fill="none" stroke="black" d="M203.188,-503.557C217.506,-506.808 235.615,-510.378 252,-512 293.512,-516.11 340.986,-515.392 375.28,-513.916"/>
<polygon fill="black" stroke="black" points="375.654,-517.403 385.479,-513.438 375.326,-510.41 375.654,-517.403"/>
</g>
<!-- src/client/root/root.saga.ts -->
<g id="node40" class="node"><title>src/client/root/root.saga.ts</title>
<g id="a_node40"><a xlink:href="src/client/root/root.saga.ts" xlink:title="root.saga.ts">
<path fill="#ffffcc" stroke="black" d="M320.5,-550C320.5,-550 267.5,-550 267.5,-550 264.5,-550 261.5,-547 261.5,-544 261.5,-544 261.5,-538 261.5,-538 261.5,-535 264.5,-532 267.5,-532 267.5,-532 320.5,-532 320.5,-532 323.5,-532 326.5,-535 326.5,-538 326.5,-538 326.5,-544 326.5,-544 326.5,-547 323.5,-550 320.5,-550"/>
<text text-anchor="middle" x="294" y="-538.8" font-family="Helvetica,sans-Serif" font-size="9.00">root.saga.ts</text>
</a>
</g>
</g>
<!-- src/client/root/index.ts&#45;&gt;src/client/root/root.saga.ts -->
<g id="edge50" class="edge"><title>src/client/root/index.ts&#45;&gt;src/client/root/root.saga.ts</title>
<path fill="none" stroke="black" d="M200.754,-506.01C217.688,-512.433 240.689,-521.158 259.486,-528.288"/>
<polygon fill="black" stroke="black" points="258.288,-531.576 268.879,-531.851 260.77,-525.032 258.288,-531.576"/>
</g>
<!-- src/client/root/root.store.ts -->
<g id="node42" class="node"><title>src/client/root/root.store.ts</title>
<g id="a_node42"><a xlink:href="src/client/root/root.store.ts" xlink:title="root.store.ts">
<path fill="#ffffcc" stroke="black" d="M320.5,-580C320.5,-580 267.5,-580 267.5,-580 264.5,-580 261.5,-577 261.5,-574 261.5,-574 261.5,-568 261.5,-568 261.5,-565 264.5,-562 267.5,-562 267.5,-562 320.5,-562 320.5,-562 323.5,-562 326.5,-565 326.5,-568 326.5,-568 326.5,-574 326.5,-574 326.5,-577 323.5,-580 320.5,-580"/>
<text text-anchor="middle" x="294" y="-568.8" font-family="Helvetica,sans-Serif" font-size="9.00">root.store.ts</text>
</a>
</g>
</g>
<!-- src/client/root/index.ts&#45;&gt;src/client/root/root.store.ts -->
<g id="edge51" class="edge"><title>src/client/root/index.ts&#45;&gt;src/client/root/root.store.ts</title>
<path fill="none" stroke="black" d="M203.149,-504.887C207.649,-506.838 212.12,-509.194 216,-512 236.474,-526.807 231.405,-541.362 252,-556 252.502,-556.357 253.013,-556.706 253.533,-557.048"/>
<polygon fill="black" stroke="black" points="252.055,-560.228 262.508,-561.955 255.413,-554.087 252.055,-560.228"/>
</g>
<!-- src/client/root/root.reducer.ts&#45;&gt;src/client/app/index.ts -->
<g id="edge52" class="edge"><title>src/client/root/root.reducer.ts&#45;&gt;src/client/app/index.ts</title>
<path fill="none" stroke="black" d="M401.561,-501.885C385.964,-495.437 363.999,-487.068 344,-482 296.994,-470.087 162.157,-485.42 128,-451 65.1305,-387.645 143.77,-330.34 101,-252 98.2582,-246.978 94.2744,-242.443 89.9917,-238.53"/>
<polygon fill="black" stroke="black" points="92.1378,-235.765 82.1638,-232.191 87.7322,-241.204 92.1378,-235.765"/>
</g>
<!-- src/client/root/root.reducer.ts&#45;&gt;src/client/auth/index.ts -->
<g id="edge53" class="edge"><title>src/client/root/root.reducer.ts&#45;&gt;src/client/auth/index.ts</title>
<path fill="none" stroke="black" d="M452.978,-501.923C471.084,-496.153 494.681,-488.631 514.07,-482.452"/>
<polygon fill="black" stroke="black" points="515.31,-485.73 523.775,-479.359 513.184,-479.061 515.31,-485.73"/>
</g>
<!-- src/client/root/root.saga.ts&#45;&gt;src/client/auth/auth.saga.ts -->
<g id="edge54" class="edge"><title>src/client/root/root.saga.ts&#45;&gt;src/client/auth/auth.saga.ts</title>
<path fill="none" stroke="black" d="M326.547,-538.456C362.491,-535.538 422.988,-530.566 475,-526 531.236,-521.064 596.073,-515.026 637.75,-511.101"/>
<polygon fill="black" stroke="black" points="638.2,-514.574 647.827,-510.151 637.543,-507.605 638.2,-514.574"/>
</g>
<!-- src/client/root/root.saga.ts&#45;&gt;src/client/home/home.saga.ts -->
<g id="edge55" class="edge"><title>src/client/root/root.saga.ts&#45;&gt;src/client/home/home.saga.ts</title>
<path fill="none" stroke="black" d="M311.692,-531.894C321.34,-526.442 333.59,-519.192 344,-512 353.366,-505.53 354.608,-502.431 364,-496 418.585,-458.624 486.703,-421.254 523.478,-401.784"/>
<polygon fill="black" stroke="black" points="525.336,-404.761 532.554,-397.005 522.075,-398.567 525.336,-404.761"/>
</g>
<!-- src/client/root/root.spec.tsx -->
<g id="node41" class="node"><title>src/client/root/root.spec.tsx</title>
<g id="a_node41"><a xlink:href="src/client/root/root.spec.tsx" xlink:title="root.spec.tsx">
<path fill="#ffffcc" stroke="black" d="M204,-536C204,-536 148,-536 148,-536 145,-536 142,-533 142,-530 142,-530 142,-524 142,-524 142,-521 145,-518 148,-518 148,-518 204,-518 204,-518 207,-518 210,-521 210,-524 210,-524 210,-530 210,-530 210,-533 207,-536 204,-536"/>
<text text-anchor="middle" x="176" y="-524.8" font-family="Helvetica,sans-Serif" font-size="9.00">root.spec.tsx</text>
</a>
</g>
</g>
<!-- src/client/root/root.store.ts&#45;&gt;src/client/root/root.reducer.ts -->
<g id="edge56" class="edge"><title>src/client/root/root.store.ts&#45;&gt;src/client/root/root.reducer.ts</title>
<path fill="none" stroke="black" d="M326.744,-562.419C332.567,-560.526 338.53,-558.369 344,-556 363.696,-547.468 384.731,-535.224 400.063,-525.661"/>
<polygon fill="black" stroke="black" points="402.242,-528.423 408.81,-520.11 398.492,-522.513 402.242,-528.423"/>
</g>
<!-- src/client/root/root.tsx&#45;&gt;src/client/app/App.tsx -->
<g id="edge57" class="edge"><title>src/client/root/root.tsx&#45;&gt;src/client/app/App.tsx</title>
<path fill="none" stroke="black" d="M148.936,-555.189C136.085,-552.764 121.939,-547.447 114.5,-536 102.572,-517.646 107.814,-359.843 114.5,-339 123.189,-311.911 143.898,-286.102 158.889,-269.951"/>
<polygon fill="black" stroke="black" points="161.71,-272.066 166.112,-262.429 156.661,-267.217 161.71,-272.066"/>
</g>
<!-- src/client/root/root.tsx&#45;&gt;src/client/root/root.saga.ts -->
<g id="edge58" class="edge"><title>src/client/root/root.tsx&#45;&gt;src/client/root/root.saga.ts</title>
<path fill="none" stroke="black" d="M203.033,-553.409C217.17,-551.459 234.992,-549.001 251.037,-546.788"/>
<polygon fill="black" stroke="black" points="251.84,-550.21 261.268,-545.377 250.883,-543.276 251.84,-550.21"/>
</g>
<!-- src/client/root/root.tsx&#45;&gt;src/client/root/root.store.ts -->
<g id="edge59" class="edge"><title>src/client/root/root.tsx&#45;&gt;src/client/root/root.store.ts</title>
<path fill="none" stroke="black" d="M203.033,-560.142C217.17,-561.848 234.992,-563.999 251.037,-565.936"/>
<polygon fill="black" stroke="black" points="250.92,-569.447 261.268,-567.17 251.759,-562.497 250.92,-569.447"/>
</g>
<!-- src/server/index.ts -->
<g id="node44" class="node"><title>src/server/index.ts</title>
<g id="a_node44"><a xlink:href="src/server/index.ts" xlink:title="index.ts">
<path fill="#ffffcc" stroke="black" d="M87,-90C87,-90 45,-90 45,-90 42,-90 39,-87 39,-84 39,-84 39,-78 39,-78 39,-75 42,-72 45,-72 45,-72 87,-72 87,-72 90,-72 93,-75 93,-78 93,-78 93,-84 93,-84 93,-87 90,-90 87,-90"/>
<text text-anchor="middle" x="66" y="-78.8" font-family="Helvetica,sans-Serif" font-size="9.00">index.ts</text>
</a>
</g>
</g>
<!-- src/server/index.ts&#45;&gt;http -->
<g id="edge60" class="edge"><title>src/server/index.ts&#45;&gt;http</title>
<path fill="none" stroke="grey" d="M90.1687,-71.9899C105.298,-66.1064 125.282,-58.3346 142.054,-51.8123"/>
<polygon fill="grey" stroke="grey" points="143.445,-55.0266 151.497,-48.1401 140.908,-48.5026 143.445,-55.0266"/>
</g>
<!-- src/server/index.ts&#45;&gt;path -->
<g id="edge61" class="edge"><title>src/server/index.ts&#45;&gt;path</title>
<path fill="none" stroke="grey" d="M74.3392,-71.9836C84.946,-59.508 105.743,-37.0475 128,-24 131.475,-21.9628 135.26,-20.1678 139.123,-18.5949"/>
<polygon fill="grey" stroke="grey" points="140.53,-21.8084 148.756,-15.1307 138.161,-15.2214 140.53,-21.8084"/>
</g>
<!-- src/shared/chess.spec.ts -->
<g id="node45" class="node"><title>src/shared/chess.spec.ts</title>
<g id="a_node45"><a xlink:href="src/shared/chess.spec.ts" xlink:title="chess.spec.ts">
<path fill="#ffffcc" stroke="black" d="M713,-120C713,-120 651,-120 651,-120 648,-120 645,-117 645,-114 645,-114 645,-108 645,-108 645,-105 648,-102 651,-102 651,-102 713,-102 713,-102 716,-102 719,-105 719,-108 719,-108 719,-114 719,-114 719,-117 716,-120 713,-120"/>
<text text-anchor="middle" x="682" y="-108.8" font-family="Helvetica,sans-Serif" font-size="9.00">chess.spec.ts</text>
</a>
</g>
</g>
<!-- src/shared/chess.ts -->
<g id="node46" class="node"><title>src/shared/chess.ts</title>
<g id="a_node46"><a xlink:href="src/shared/chess.ts" xlink:title="chess.ts">
<path fill="#ffffcc" stroke="black" d="M703,-90C703,-90 661,-90 661,-90 658,-90 655,-87 655,-84 655,-84 655,-78 655,-78 655,-75 658,-72 661,-72 661,-72 703,-72 703,-72 706,-72 709,-75 709,-78 709,-78 709,-84 709,-84 709,-87 706,-90 703,-90"/>
<text text-anchor="middle" x="682" y="-78.8" font-family="Helvetica,sans-Serif" font-size="9.00">chess.ts</text>
</a>
</g>
</g>
<!-- src/shared/chess.ts&#45;&gt;src/shared/domain.ts -->
<g id="edge62" class="edge"><title>src/shared/chess.ts&#45;&gt;src/shared/domain.ts</title>
<path fill="none" stroke="black" d="M709.212,-87.1433C727.482,-91.4255 752.153,-97.2078 772.631,-102.007"/>
<polygon fill="black" stroke="black" points="772.065,-105.469 782.6,-104.344 773.663,-98.6541 772.065,-105.469"/>
</g>
</g>
</svg>
