<?xml version="1.0" encoding="UTF-8" standalone="no"?>
<!DOCTYPE svg PUBLIC "-//W3C//DTD SVG 1.1//EN"
 "http://www.w3.org/Graphics/SVG/1.1/DTD/svg11.dtd">
<!-- Generated by graphviz version 2.38.0 (20140413.2041)
 -->
<!-- Title: dependency&#45;cruiser output Pages: 1 -->
<svg width="893pt" height="674pt"
 viewBox="0.00 0.00 892.50 674.00" xmlns="http://www.w3.org/2000/svg" xmlns:xlink="http://www.w3.org/1999/xlink">
<g id="graph0" class="graph" transform="scale(1 1) rotate(0) translate(4 670)">
<title>dependency&#45;cruiser output</title>
<polygon fill="white" stroke="none" points="-4,4 -4,-670 888.5,-670 888.5,4 -4,4"/>
<g id="clust1" class="cluster"><title>cluster_/src</title>
<path fill="none" stroke="black" stroke-width="2" d="M20,-56C20,-56 864.5,-56 864.5,-56 870.5,-56 876.5,-62 876.5,-68 876.5,-68 876.5,-646 876.5,-646 876.5,-652 870.5,-658 864.5,-658 864.5,-658 20,-658 20,-658 14,-658 8,-652 8,-646 8,-646 8,-68 8,-68 8,-62 14,-56 20,-56"/>
<text text-anchor="middle" x="442.25" y="-646.8" font-family="Helvetica,sans-Serif" font-weight="bold" font-size="9.00">src</text>
</g>
<g id="clust2" class="cluster"><title>cluster_/src/client</title>
<path fill="none" stroke="black" stroke-width="2" d="M28,-154C28,-154 856.5,-154 856.5,-154 862.5,-154 868.5,-160 868.5,-166 868.5,-166 868.5,-620 868.5,-620 868.5,-626 862.5,-632 856.5,-632 856.5,-632 28,-632 28,-632 22,-632 16,-626 16,-620 16,-620 16,-166 16,-166 16,-160 22,-154 28,-154"/>
<text text-anchor="middle" x="442.25" y="-620.8" font-family="Helvetica,sans-Serif" font-weight="bold" font-size="9.00">client</text>
</g>
<g id="clust11" class="cluster"><title>cluster_/src/client/root</title>
<path fill="none" stroke="black" stroke-width="2" d="M147.5,-480C147.5,-480 459,-480 459,-480 465,-480 471,-486 471,-492 471,-492 471,-594 471,-594 471,-600 465,-606 459,-606 459,-606 147.5,-606 147.5,-606 141.5,-606 135.5,-600 135.5,-594 135.5,-594 135.5,-492 135.5,-492 135.5,-486 141.5,-480 147.5,-480"/>
<text text-anchor="middle" x="303.25" y="-594.8" font-family="Helvetica,sans-Serif" font-weight="bold" font-size="9.00">root</text>
</g>
<g id="clust10" class="cluster"><title>cluster_/src/client/openings</title>
<path fill="none" stroke="black" stroke-width="2" d="M402,-222C402,-222 584,-222 584,-222 590,-222 596,-228 596,-234 596,-234 596,-262 596,-262 596,-268 590,-274 584,-274 584,-274 402,-274 402,-274 396,-274 390,-268 390,-262 390,-262 390,-234 390,-234 390,-228 396,-222 402,-222"/>
<text text-anchor="middle" x="493" y="-262.8" font-family="Helvetica,sans-Serif" font-weight="bold" font-size="9.00">openings</text>
</g>
<g id="clust8" class="cluster"><title>cluster_/src/client/home</title>
<path fill="none" stroke="black" stroke-width="2" d="M377.5,-283C377.5,-283 734.5,-283 734.5,-283 740.5,-283 746.5,-289 746.5,-295 746.5,-295 746.5,-411 746.5,-411 746.5,-417 740.5,-423 734.5,-423 734.5,-423 377.5,-423 377.5,-423 371.5,-423 365.5,-417 365.5,-411 365.5,-411 365.5,-295 365.5,-295 365.5,-289 371.5,-283 377.5,-283"/>
<text text-anchor="middle" x="556" y="-411.8" font-family="Helvetica,sans-Serif" font-weight="bold" font-size="9.00">home</text>
</g>
<g id="clust6" class="cluster"><title>cluster_/src/client/common</title>
<path fill="none" stroke="black" stroke-width="2" d="M652,-175C652,-175 847,-175 847,-175 853,-175 859,-181 859,-187 859,-187 859,-249 859,-249 859,-255 853,-261 847,-261 847,-261 652,-261 652,-261 646,-261 640,-255 640,-249 640,-249 640,-187 640,-187 640,-181 646,-175 652,-175"/>
<text text-anchor="middle" x="749.5" y="-249.8" font-family="Helvetica,sans-Serif" font-weight="bold" font-size="9.00">common</text>
</g>
<g id="clust7" class="cluster"><title>cluster_/src/client/common/board</title>
<path fill="none" stroke="black" stroke-width="2" d="M660,-183C660,-183 839,-183 839,-183 845,-183 851,-189 851,-195 851,-195 851,-223 851,-223 851,-229 845,-235 839,-235 839,-235 660,-235 660,-235 654,-235 648,-229 648,-223 648,-223 648,-195 648,-195 648,-189 654,-183 660,-183"/>
<text text-anchor="middle" x="749.5" y="-223.8" font-family="Helvetica,sans-Serif" font-weight="bold" font-size="9.00">board</text>
</g>
<g id="clust9" class="cluster"><title>cluster_/src/client/menu</title>
<path fill="none" stroke="black" stroke-width="2" d="M141.5,-336C141.5,-336 333.5,-336 333.5,-336 339.5,-336 345.5,-342 345.5,-348 345.5,-348 345.5,-436 345.5,-436 345.5,-442 339.5,-448 333.5,-448 333.5,-448 141.5,-448 141.5,-448 135.5,-448 129.5,-442 129.5,-436 129.5,-436 129.5,-348 129.5,-348 129.5,-342 135.5,-336 141.5,-336"/>
<text text-anchor="middle" x="237.5" y="-436.8" font-family="Helvetica,sans-Serif" font-weight="bold" font-size="9.00">menu</text>
</g>
<g id="clust3" class="cluster"><title>cluster_/src/client/admin</title>
<path fill="none" stroke="black" stroke-width="2" d="M402,-162C402,-162 576.5,-162 576.5,-162 582.5,-162 588.5,-168 588.5,-174 588.5,-174 588.5,-202 588.5,-202 588.5,-208 582.5,-214 576.5,-214 576.5,-214 402,-214 402,-214 396,-214 390,-208 390,-202 390,-202 390,-174 390,-174 390,-168 396,-162 402,-162"/>
<text text-anchor="middle" x="489.25" y="-202.8" font-family="Helvetica,sans-Serif" font-weight="bold" font-size="9.00">admin</text>
</g>
<g id="clust4" class="cluster"><title>cluster_/src/client/app</title>
<path fill="none" stroke="black" stroke-width="2" d="M36,-162C36,-162 318.5,-162 318.5,-162 324.5,-162 330.5,-168 330.5,-174 330.5,-174 330.5,-290 330.5,-290 330.5,-296 324.5,-302 318.5,-302 318.5,-302 36,-302 36,-302 30,-302 24,-296 24,-290 24,-290 24,-174 24,-174 24,-168 30,-162 36,-162"/>
<text text-anchor="middle" x="177.25" y="-290.8" font-family="Helvetica,sans-Serif" font-weight="bold" font-size="9.00">app</text>
</g>
<g id="clust5" class="cluster"><title>cluster_/src/client/auth</title>
<path fill="none" stroke="black" stroke-width="2" d="M529.5,-432C529.5,-432 848.5,-432 848.5,-432 854.5,-432 860.5,-438 860.5,-444 860.5,-444 860.5,-530 860.5,-530 860.5,-536 854.5,-542 848.5,-542 848.5,-542 529.5,-542 529.5,-542 523.5,-542 517.5,-536 517.5,-530 517.5,-530 517.5,-444 517.5,-444 517.5,-438 523.5,-432 529.5,-432"/>
<text text-anchor="middle" x="689" y="-530.8" font-family="Helvetica,sans-Serif" font-weight="bold" font-size="9.00">auth</text>
</g>
<g id="clust13" class="cluster"><title>cluster_/src/shared</title>
<path fill="none" stroke="black" stroke-width="2" d="M650.5,-64C650.5,-64 838.5,-64 838.5,-64 844.5,-64 850.5,-70 850.5,-76 850.5,-76 850.5,-134 850.5,-134 850.5,-140 844.5,-146 838.5,-146 838.5,-146 650.5,-146 650.5,-146 644.5,-146 638.5,-140 638.5,-134 638.5,-134 638.5,-76 638.5,-76 638.5,-70 644.5,-64 650.5,-64"/>
<text text-anchor="middle" x="744.5" y="-134.8" font-family="Helvetica,sans-Serif" font-weight="bold" font-size="9.00">shared</text>
</g>
<g id="clust12" class="cluster"><title>cluster_/src/server</title>
<path fill="none" stroke="black" stroke-width="2" d="M34.5,-64C34.5,-64 97.5,-64 97.5,-64 103.5,-64 109.5,-70 109.5,-76 109.5,-76 109.5,-134 109.5,-134 109.5,-140 103.5,-146 97.5,-146 97.5,-146 34.5,-146 34.5,-146 28.5,-146 22.5,-140 22.5,-134 22.5,-134 22.5,-76 22.5,-76 22.5,-70 28.5,-64 34.5,-64"/>
<text text-anchor="middle" x="66" y="-134.8" font-family="Helvetica,sans-Serif" font-weight="bold" font-size="9.00">server</text>
</g>
<!-- ./app.styles -->
<g id="node1" class="node"><title>./app.styles</title>
<path fill="#ffffcc" stroke="red" d="M319,-48C319,-48 272,-48 272,-48 269,-48 266,-45 266,-42 266,-42 266,-36 266,-36 266,-33 269,-30 272,-30 272,-30 319,-30 319,-30 322,-30 325,-33 325,-36 325,-36 325,-42 325,-42 325,-45 322,-48 319,-48"/>
<text text-anchor="middle" x="295.5" y="-36.8" font-family="Helvetica,sans-Serif" font-size="9.00" fill="red">app.styles</text>
</g>
<!-- ./openings.styles -->
<g id="node2" class="node"><title>./openings.styles</title>
<path fill="#ffffcc" stroke="red" d="M718.5,-48C718.5,-48 648.5,-48 648.5,-48 645.5,-48 642.5,-45 642.5,-42 642.5,-42 642.5,-36 642.5,-36 642.5,-33 645.5,-30 648.5,-30 648.5,-30 718.5,-30 718.5,-30 721.5,-30 724.5,-33 724.5,-36 724.5,-36 724.5,-42 724.5,-42 724.5,-45 721.5,-48 718.5,-48"/>
<text text-anchor="middle" x="683.5" y="-36.8" font-family="Helvetica,sans-Serif" font-size="9.00" fill="red">openings.styles</text>
</g>
<!-- http -->
<g id="node3" class="node"><title>http</title>
<path fill="#ffffcc" stroke="grey" d="M198.5,-48C198.5,-48 156.5,-48 156.5,-48 153.5,-48 150.5,-45 150.5,-42 150.5,-42 150.5,-36 150.5,-36 150.5,-33 153.5,-30 156.5,-30 156.5,-30 198.5,-30 198.5,-30 201.5,-30 204.5,-33 204.5,-36 204.5,-36 204.5,-42 204.5,-42 204.5,-45 201.5,-48 198.5,-48"/>
<text text-anchor="middle" x="177.5" y="-36.8" font-family="Helvetica,sans-Serif" font-size="9.00" fill="grey">http</text>
</g>
<!-- path -->
<g id="node4" class="node"><title>path</title>
<path fill="#ffffcc" stroke="grey" d="M198.5,-18C198.5,-18 156.5,-18 156.5,-18 153.5,-18 150.5,-15 150.5,-12 150.5,-12 150.5,-6 150.5,-6 150.5,-3 153.5,-0 156.5,-0 156.5,-0 198.5,-0 198.5,-0 201.5,-0 204.5,-3 204.5,-6 204.5,-6 204.5,-12 204.5,-12 204.5,-15 201.5,-18 198.5,-18"/>
<text text-anchor="middle" x="177.5" y="-6.8" font-family="Helvetica,sans-Serif" font-size="9.00" fill="grey">path</text>
</g>
<!-- src/client/admin/Admin.tsx -->
<g id="node5" class="node"><title>src/client/admin/Admin.tsx</title>
<g id="a_node5"><a xlink:href="src/client/admin/Admin.tsx" xlink:title="Admin.tsx">
<path fill="#ffffcc" stroke="black" d="M574.5,-188C574.5,-188 530.5,-188 530.5,-188 527.5,-188 524.5,-185 524.5,-182 524.5,-182 524.5,-176 524.5,-176 524.5,-173 527.5,-170 530.5,-170 530.5,-170 574.5,-170 574.5,-170 577.5,-170 580.5,-173 580.5,-176 580.5,-176 580.5,-182 580.5,-182 580.5,-185 577.5,-188 574.5,-188"/>
<text text-anchor="middle" x="552.5" y="-176.8" font-family="Helvetica,sans-Serif" font-size="9.00">Admin.tsx</text>
</a>
</g>
</g>
<!-- src/client/admin/index.ts -->
<g id="node6" class="node"><title>src/client/admin/index.ts</title>
<g id="a_node6"><a xlink:href="src/client/admin/index.ts" xlink:title="index.ts">
<path fill="#ffffcc" stroke="black" d="M446,-188C446,-188 404,-188 404,-188 401,-188 398,-185 398,-182 398,-182 398,-176 398,-176 398,-173 401,-170 404,-170 404,-170 446,-170 446,-170 449,-170 452,-173 452,-176 452,-176 452,-182 452,-182 452,-185 449,-188 446,-188"/>
<text text-anchor="middle" x="425" y="-176.8" font-family="Helvetica,sans-Serif" font-size="9.00">index.ts</text>
</a>
</g>
</g>
<!-- src/client/admin/index.ts&#45;&gt;src/client/admin/Admin.tsx -->
<g id="edge1" class="edge"><title>src/client/admin/index.ts&#45;&gt;src/client/admin/Admin.tsx</title>
<path fill="none" stroke="black" d="M452.004,-179C469.979,-179 494.165,-179 514.19,-179"/>
<polygon fill="black" stroke="black" points="514.227,-182.5 524.227,-179 514.227,-175.5 514.227,-182.5"/>
</g>
<!-- src/client/app/App.spec.tsx -->
<g id="node7" class="node"><title>src/client/app/App.spec.tsx</title>
<g id="a_node7"><a xlink:href="src/client/app/App.spec.tsx" xlink:title="App.spec.tsx">
<path fill="#ffffcc" stroke="black" d="M94,-276C94,-276 38,-276 38,-276 35,-276 32,-273 32,-270 32,-270 32,-264 32,-264 32,-261 35,-258 38,-258 38,-258 94,-258 94,-258 97,-258 100,-261 100,-264 100,-264 100,-270 100,-270 100,-273 97,-276 94,-276"/>
<text text-anchor="middle" x="66" y="-264.8" font-family="Helvetica,sans-Serif" font-size="9.00">App.spec.tsx</text>
</a>
</g>
</g>
<!-- src/client/app/App.tsx -->
<g id="node8" class="node"><title>src/client/app/App.tsx</title>
<g id="a_node8"><a xlink:href="src/client/app/App.tsx" xlink:title="App.tsx">
<path fill="#ffffcc" stroke="black" d="M198.5,-262C198.5,-262 156.5,-262 156.5,-262 153.5,-262 150.5,-259 150.5,-256 150.5,-256 150.5,-250 150.5,-250 150.5,-247 153.5,-244 156.5,-244 156.5,-244 198.5,-244 198.5,-244 201.5,-244 204.5,-247 204.5,-250 204.5,-250 204.5,-256 204.5,-256 204.5,-259 201.5,-262 198.5,-262"/>
<text text-anchor="middle" x="177.5" y="-250.8" font-family="Helvetica,sans-Serif" font-size="9.00">App.tsx</text>
</a>
</g>
</g>
<!-- src/client/app/App.spec.tsx&#45;&gt;src/client/app/App.tsx -->
<g id="edge4" class="edge"><title>src/client/app/App.spec.tsx&#45;&gt;src/client/app/App.tsx</title>
<path fill="none" stroke="black" d="M100.151,-262.762C112.866,-261.136 127.432,-259.274 140.41,-257.614"/>
<polygon fill="black" stroke="black" points="140.936,-261.076 150.411,-256.336 140.048,-254.132 140.936,-261.076"/>
</g>
<!-- src/client/app/routes.ts -->
<g id="node12" class="node"><title>src/client/app/routes.ts</title>
<g id="a_node12"><a xlink:href="src/client/app/routes.ts" xlink:title="routes.ts">
<path fill="#ffffcc" stroke="black" d="M316.5,-262C316.5,-262 274.5,-262 274.5,-262 271.5,-262 268.5,-259 268.5,-256 268.5,-256 268.5,-250 268.5,-250 268.5,-247 271.5,-244 274.5,-244 274.5,-244 316.5,-244 316.5,-244 319.5,-244 322.5,-247 322.5,-250 322.5,-250 322.5,-256 322.5,-256 322.5,-259 319.5,-262 316.5,-262"/>
<text text-anchor="middle" x="295.5" y="-250.8" font-family="Helvetica,sans-Serif" font-size="9.00">routes.ts</text>
</a>
</g>
</g>
<!-- src/client/app/App.spec.tsx&#45;&gt;src/client/app/routes.ts -->
<g id="edge5" class="edge"><title>src/client/app/App.spec.tsx&#45;&gt;src/client/app/routes.ts</title>
<path fill="none" stroke="black" d="M100.084,-267.628C109.581,-267.782 119.95,-267.924 129.5,-268 168.61,-268.313 178.57,-271.757 217.5,-268 230.978,-266.699 245.601,-264.147 258.447,-261.51"/>
<polygon fill="black" stroke="black" points="259.265,-264.915 268.312,-259.401 257.801,-258.069 259.265,-264.915"/>
</g>
<!-- src/client/auth/index.ts -->
<g id="node17" class="node"><title>src/client/auth/index.ts</title>
<g id="a_node17"><a xlink:href="src/client/auth/index.ts" xlink:title="index.ts">
<path fill="#ffffcc" stroke="black" d="M573.5,-480C573.5,-480 531.5,-480 531.5,-480 528.5,-480 525.5,-477 525.5,-474 525.5,-474 525.5,-468 525.5,-468 525.5,-465 528.5,-462 531.5,-462 531.5,-462 573.5,-462 573.5,-462 576.5,-462 579.5,-465 579.5,-468 579.5,-468 579.5,-474 579.5,-474 579.5,-477 576.5,-480 573.5,-480"/>
<text text-anchor="middle" x="552.5" y="-468.8" font-family="Helvetica,sans-Serif" font-size="9.00">index.ts</text>
</a>
</g>
</g>
<!-- src/client/app/App.spec.tsx&#45;&gt;src/client/auth/index.ts -->
<g id="edge2" class="edge"><title>src/client/app/App.spec.tsx&#45;&gt;src/client/auth/index.ts</title>
<path fill="none" stroke="black" d="M100.056,-272.739C103.651,-274.553 106.93,-276.919 109.5,-280 158.512,-338.761 73.5576,-398.794 129.5,-451 157.346,-476.986 417.823,-473.97 515.095,-471.907"/>
<polygon fill="black" stroke="black" points="515.405,-475.401 525.325,-471.681 515.25,-468.403 515.405,-475.401"/>
</g>
<!-- src/client/root/index.ts -->
<g id="node37" class="node"><title>src/client/root/index.ts</title>
<g id="a_node37"><a xlink:href="src/client/root/index.ts" xlink:title="index.ts">
<path fill="#ffffcc" stroke="black" d="M198.5,-506C198.5,-506 156.5,-506 156.5,-506 153.5,-506 150.5,-503 150.5,-500 150.5,-500 150.5,-494 150.5,-494 150.5,-491 153.5,-488 156.5,-488 156.5,-488 198.5,-488 198.5,-488 201.5,-488 204.5,-491 204.5,-494 204.5,-494 204.5,-500 204.5,-500 204.5,-503 201.5,-506 198.5,-506"/>
<text text-anchor="middle" x="177.5" y="-494.8" font-family="Helvetica,sans-Serif" font-size="9.00">index.ts</text>
</a>
</g>
</g>
<!-- src/client/app/App.spec.tsx&#45;&gt;src/client/root/index.ts -->
<g id="edge3" class="edge"><title>src/client/app/App.spec.tsx&#45;&gt;src/client/root/index.ts</title>
<path fill="none" stroke="black" d="M100.098,-272.704C103.686,-274.524 106.952,-276.901 109.5,-280 164.827,-347.298 79.0494,-403.973 129.5,-475 132.552,-479.297 136.664,-482.779 141.191,-485.594"/>
<polygon fill="black" stroke="black" points="139.744,-488.785 150.24,-490.224 142.932,-482.553 139.744,-488.785"/>
</g>
<!-- src/client/app/App.tsx&#45;&gt;./app.styles -->
<g id="edge9" class="edge"><title>src/client/app/App.tsx&#45;&gt;./app.styles</title>
<path fill="none" stroke="black" d="M204.654,-246.432C209.361,-244.334 213.906,-241.587 217.5,-238 230.971,-224.557 272.429,-104.472 288.264,-57.6115"/>
<polygon fill="black" stroke="black" points="291.6,-58.673 291.473,-48.0789 284.965,-56.4399 291.6,-58.673"/>
</g>
<!-- src/client/app/App.tsx&#45;&gt;src/client/app/routes.ts -->
<g id="edge10" class="edge"><title>src/client/app/App.tsx&#45;&gt;src/client/app/routes.ts</title>
<path fill="none" stroke="black" d="M204.533,-253C220.243,-253 240.503,-253 257.819,-253"/>
<polygon fill="black" stroke="black" points="258.153,-256.5 268.153,-253 258.153,-249.5 258.153,-256.5"/>
</g>
<!-- src/client/globals.ts -->
<g id="node20" class="node"><title>src/client/globals.ts</title>
<g id="a_node20"><a xlink:href="src/client/globals.ts" xlink:title="globals.ts">
<path fill="#ffffcc" stroke="black" d="M318,-328C318,-328 273,-328 273,-328 270,-328 267,-325 267,-322 267,-322 267,-316 267,-316 267,-313 270,-310 273,-310 273,-310 318,-310 318,-310 321,-310 324,-313 324,-316 324,-316 324,-322 324,-322 324,-325 321,-328 318,-328"/>
<text text-anchor="middle" x="295.5" y="-316.8" font-family="Helvetica,sans-Serif" font-size="9.00">globals.ts</text>
</a>
</g>
</g>
<!-- src/client/app/App.tsx&#45;&gt;src/client/globals.ts -->
<g id="edge6" class="edge"><title>src/client/app/App.tsx&#45;&gt;src/client/globals.ts</title>
<path fill="none" stroke="black" d="M189.568,-262.154C203.68,-273.464 229.174,-292.715 253.5,-305 254.671,-305.591 255.872,-306.167 257.095,-306.726"/>
<polygon fill="black" stroke="black" points="256.142,-310.119 266.721,-310.687 258.806,-303.645 256.142,-310.119"/>
</g>
<!-- src/client/menu/Menu.tsx -->
<g id="node31" class="node"><title>src/client/menu/Menu.tsx</title>
<g id="a_node31"><a xlink:href="src/client/menu/Menu.tsx" xlink:title="Menu.tsx">
<path fill="#ffffcc" stroke="black" d="M316.5,-392C316.5,-392 274.5,-392 274.5,-392 271.5,-392 268.5,-389 268.5,-386 268.5,-386 268.5,-380 268.5,-380 268.5,-377 271.5,-374 274.5,-374 274.5,-374 316.5,-374 316.5,-374 319.5,-374 322.5,-377 322.5,-380 322.5,-380 322.5,-386 322.5,-386 322.5,-389 319.5,-392 316.5,-392"/>
<text text-anchor="middle" x="295.5" y="-380.8" font-family="Helvetica,sans-Serif" font-size="9.00">Menu.tsx</text>
</a>
</g>
</g>
<!-- src/client/app/App.tsx&#45;&gt;src/client/menu/Menu.tsx -->
<g id="edge7" class="edge"><title>src/client/app/App.tsx&#45;&gt;src/client/menu/Menu.tsx</title>
<path fill="none" stroke="black" d="M181.814,-262.137C190.243,-284.094 214.625,-340.207 253.5,-370 255.282,-371.366 257.21,-372.59 259.227,-373.687"/>
<polygon fill="black" stroke="black" points="257.883,-376.919 268.447,-377.727 260.693,-370.508 257.883,-376.919"/>
</g>
<!-- src/client/app/App.tsx&#45;&gt;src/client/root/index.ts -->
<g id="edge8" class="edge"><title>src/client/app/App.tsx&#45;&gt;src/client/root/index.ts</title>
<path fill="none" stroke="black" d="M168.616,-262.062C154.912,-276.747 129.187,-307.311 119.5,-339 111.055,-366.627 105.266,-443.861 119.5,-469 124.233,-477.36 132.323,-483.263 140.983,-487.415"/>
<polygon fill="black" stroke="black" points="139.89,-490.749 150.472,-491.268 142.523,-484.263 139.89,-490.749"/>
</g>
<!-- src/client/app/app.domain.ts -->
<g id="node9" class="node"><title>src/client/app/app.domain.ts</title>
<g id="a_node9"><a xlink:href="src/client/app/app.domain.ts" xlink:title="app.domain.ts">
<path fill="#ffffcc" stroke="black" d="M209.5,-232C209.5,-232 145.5,-232 145.5,-232 142.5,-232 139.5,-229 139.5,-226 139.5,-226 139.5,-220 139.5,-220 139.5,-217 142.5,-214 145.5,-214 145.5,-214 209.5,-214 209.5,-214 212.5,-214 215.5,-217 215.5,-220 215.5,-220 215.5,-226 215.5,-226 215.5,-229 212.5,-232 209.5,-232"/>
<text text-anchor="middle" x="177.5" y="-220.8" font-family="Helvetica,sans-Serif" font-size="9.00">app.domain.ts</text>
</a>
</g>
</g>
<!-- src/client/app/app.reducer.ts -->
<g id="node10" class="node"><title>src/client/app/app.reducer.ts</title>
<g id="a_node10"><a xlink:href="src/client/app/app.reducer.ts" xlink:title="app.reducer.ts">
<path fill="#ffffcc" stroke="black" d="M209.5,-188C209.5,-188 145.5,-188 145.5,-188 142.5,-188 139.5,-185 139.5,-182 139.5,-182 139.5,-176 139.5,-176 139.5,-173 142.5,-170 145.5,-170 145.5,-170 209.5,-170 209.5,-170 212.5,-170 215.5,-173 215.5,-176 215.5,-176 215.5,-182 215.5,-182 215.5,-185 212.5,-188 209.5,-188"/>
<text text-anchor="middle" x="177.5" y="-176.8" font-family="Helvetica,sans-Serif" font-size="9.00">app.reducer.ts</text>
</a>
</g>
</g>
<!-- src/client/app/index.ts -->
<g id="node11" class="node"><title>src/client/app/index.ts</title>
<g id="a_node11"><a xlink:href="src/client/app/index.ts" xlink:title="index.ts">
<path fill="#ffffcc" stroke="black" d="M87,-232C87,-232 45,-232 45,-232 42,-232 39,-229 39,-226 39,-226 39,-220 39,-220 39,-217 42,-214 45,-214 45,-214 87,-214 87,-214 90,-214 93,-217 93,-220 93,-220 93,-226 93,-226 93,-229 90,-232 87,-232"/>
<text text-anchor="middle" x="66" y="-220.8" font-family="Helvetica,sans-Serif" font-size="9.00">index.ts</text>
</a>
</g>
</g>
<!-- src/client/app/index.ts&#45;&gt;src/client/app/App.tsx -->
<g id="edge11" class="edge"><title>src/client/app/index.ts&#45;&gt;src/client/app/App.tsx</title>
<path fill="none" stroke="black" d="M93.228,-230.186C107.449,-234.082 125.232,-238.954 140.709,-243.194"/>
<polygon fill="black" stroke="black" points="139.917,-246.606 150.486,-245.873 141.766,-239.855 139.917,-246.606"/>
</g>
<!-- src/client/app/index.ts&#45;&gt;src/client/app/app.domain.ts -->
<g id="edge12" class="edge"><title>src/client/app/index.ts&#45;&gt;src/client/app/app.domain.ts</title>
<path fill="none" stroke="black" d="M93.228,-223C104.004,-223 116.825,-223 129.138,-223"/>
<polygon fill="black" stroke="black" points="129.305,-226.5 139.305,-223 129.305,-219.5 129.305,-226.5"/>
</g>
<!-- src/client/app/index.ts&#45;&gt;src/client/app/app.reducer.ts -->
<g id="edge13" class="edge"><title>src/client/app/index.ts&#45;&gt;src/client/app/app.reducer.ts</title>
<path fill="none" stroke="black" d="M88.3439,-213.944C100.393,-208.877 115.749,-202.492 129.5,-197 133.816,-195.276 138.367,-193.492 142.87,-191.746"/>
<polygon fill="black" stroke="black" points="144.463,-194.884 152.539,-188.026 141.949,-188.351 144.463,-194.884"/>
</g>
<!-- src/client/app/index.ts&#45;&gt;src/client/app/routes.ts -->
<g id="edge14" class="edge"><title>src/client/app/index.ts&#45;&gt;src/client/app/routes.ts</title>
<path fill="none" stroke="black" d="M93.0305,-214.814C123.411,-206.533 174.92,-196.47 217.5,-208 238.788,-213.764 260.224,-227.045 275.053,-237.694"/>
<polygon fill="black" stroke="black" points="273.263,-240.724 283.373,-243.893 277.445,-235.111 273.263,-240.724"/>
</g>
<!-- src/client/app/routes.ts&#45;&gt;src/client/admin/index.ts -->
<g id="edge15" class="edge"><title>src/client/app/routes.ts&#45;&gt;src/client/admin/index.ts</title>
<path fill="none" stroke="black" d="M312.134,-243.926C333.928,-231.277 373.66,-208.217 399.433,-193.258"/>
<polygon fill="black" stroke="black" points="401.346,-196.195 408.238,-188.148 397.832,-190.141 401.346,-196.195"/>
</g>
<!-- src/client/app/routes.ts&#45;&gt;src/client/auth/index.ts -->
<g id="edge16" class="edge"><title>src/client/app/routes.ts&#45;&gt;src/client/auth/index.ts</title>
<path fill="none" stroke="black" d="M322.716,-254.266C331.142,-256.006 339.768,-259.437 345.5,-266 392.642,-319.976 315.079,-375.074 365.5,-426 383.013,-443.688 452.429,-434.663 476.5,-441 492.324,-445.166 509.303,-451.766 523.098,-457.717"/>
<polygon fill="black" stroke="black" points="521.957,-461.039 532.518,-461.89 524.793,-454.639 521.957,-461.039"/>
</g>
<!-- src/client/home/index.ts -->
<g id="node28" class="node"><title>src/client/home/index.ts</title>
<g id="a_node28"><a xlink:href="src/client/home/index.ts" xlink:title="index.ts">
<path fill="#ffffcc" stroke="black" d="M446,-339C446,-339 404,-339 404,-339 401,-339 398,-336 398,-333 398,-333 398,-327 398,-327 398,-324 401,-321 404,-321 404,-321 446,-321 446,-321 449,-321 452,-324 452,-327 452,-327 452,-333 452,-333 452,-336 449,-339 446,-339"/>
<text text-anchor="middle" x="425" y="-327.8" font-family="Helvetica,sans-Serif" font-size="9.00">index.ts</text>
</a>
</g>
</g>
<!-- src/client/app/routes.ts&#45;&gt;src/client/home/index.ts -->
<g id="edge17" class="edge"><title>src/client/app/routes.ts&#45;&gt;src/client/home/index.ts</title>
<path fill="none" stroke="black" d="M322.561,-255.348C330.678,-257.197 339.155,-260.42 345.5,-266 363.164,-281.533 347.772,-299.541 365.5,-315 371.848,-320.536 379.973,-324.074 388.135,-326.324"/>
<polygon fill="black" stroke="black" points="387.474,-329.762 397.991,-328.477 388.968,-322.924 387.474,-329.762"/>
</g>
<!-- src/client/openings/index.ts -->
<g id="node36" class="node"><title>src/client/openings/index.ts</title>
<g id="a_node36"><a xlink:href="src/client/openings/index.ts" xlink:title="index.ts">
<path fill="#ffffcc" stroke="black" d="M446,-248C446,-248 404,-248 404,-248 401,-248 398,-245 398,-242 398,-242 398,-236 398,-236 398,-233 401,-230 404,-230 404,-230 446,-230 446,-230 449,-230 452,-233 452,-236 452,-236 452,-242 452,-242 452,-245 449,-248 446,-248"/>
<text text-anchor="middle" x="425" y="-236.8" font-family="Helvetica,sans-Serif" font-size="9.00">index.ts</text>
</a>
</g>
</g>
<!-- src/client/app/routes.ts&#45;&gt;src/client/openings/index.ts -->
<g id="edge18" class="edge"><title>src/client/app/routes.ts&#45;&gt;src/client/openings/index.ts</title>
<path fill="none" stroke="black" d="M322.609,-250.133C341.431,-248.066 367.074,-245.251 387.862,-242.968"/>
<polygon fill="black" stroke="black" points="388.368,-246.434 397.926,-241.863 387.603,-239.476 388.368,-246.434"/>
</g>
<!-- src/client/auth/auth.action.ts -->
<g id="node13" class="node"><title>src/client/auth/auth.action.ts</title>
<g id="a_node13"><a xlink:href="src/client/auth/auth.action.ts" xlink:title="auth.action.ts">
<path fill="#ffffcc" stroke="black" d="M843,-480C843,-480 784,-480 784,-480 781,-480 778,-477 778,-474 778,-474 778,-468 778,-468 778,-465 781,-462 784,-462 784,-462 843,-462 843,-462 846,-462 849,-465 849,-468 849,-468 849,-474 849,-474 849,-477 846,-480 843,-480"/>
<text text-anchor="middle" x="813.5" y="-468.8" font-family="Helvetica,sans-Serif" font-size="9.00">auth.action.ts</text>
</a>
</g>
</g>
<!-- src/client/auth/auth.domain.ts -->
<g id="node14" class="node"><title>src/client/auth/auth.domain.ts</title>
<g id="a_node14"><a xlink:href="src/client/auth/auth.domain.ts" xlink:title="auth.domain.ts">
<path fill="#ffffcc" stroke="black" d="M846.5,-513C846.5,-513 780.5,-513 780.5,-513 777.5,-513 774.5,-510 774.5,-507 774.5,-507 774.5,-501 774.5,-501 774.5,-498 777.5,-495 780.5,-495 780.5,-495 846.5,-495 846.5,-495 849.5,-495 852.5,-498 852.5,-501 852.5,-501 852.5,-507 852.5,-507 852.5,-510 849.5,-513 846.5,-513"/>
<text text-anchor="middle" x="813.5" y="-501.8" font-family="Helvetica,sans-Serif" font-size="9.00">auth.domain.ts</text>
</a>
</g>
</g>
<!-- src/client/auth/auth.reducer.ts -->
<g id="node15" class="node"><title>src/client/auth/auth.reducer.ts</title>
<g id="a_node15"><a xlink:href="src/client/auth/auth.reducer.ts" xlink:title="auth.reducer.ts">
<path fill="#ffffcc" stroke="black" d="M716.5,-458C716.5,-458 650.5,-458 650.5,-458 647.5,-458 644.5,-455 644.5,-452 644.5,-452 644.5,-446 644.5,-446 644.5,-443 647.5,-440 650.5,-440 650.5,-440 716.5,-440 716.5,-440 719.5,-440 722.5,-443 722.5,-446 722.5,-446 722.5,-452 722.5,-452 722.5,-455 719.5,-458 716.5,-458"/>
<text text-anchor="middle" x="683.5" y="-446.8" font-family="Helvetica,sans-Serif" font-size="9.00">auth.reducer.ts</text>
</a>
</g>
</g>
<!-- src/client/auth/auth.reducer.ts&#45;&gt;src/client/auth/auth.action.ts -->
<g id="edge19" class="edge"><title>src/client/auth/auth.reducer.ts&#45;&gt;src/client/auth/auth.action.ts</title>
<path fill="none" stroke="black" d="M722.558,-455.541C736.808,-457.99 753.124,-460.795 767.913,-463.337"/>
<polygon fill="black" stroke="black" points="767.414,-466.802 777.863,-465.047 768.6,-459.903 767.414,-466.802"/>
</g>
<!-- src/client/auth/auth.saga.ts -->
<g id="node16" class="node"><title>src/client/auth/auth.saga.ts</title>
<g id="a_node16"><a xlink:href="src/client/auth/auth.saga.ts" xlink:title="auth.saga.ts">
<path fill="#ffffcc" stroke="black" d="M711.5,-516C711.5,-516 655.5,-516 655.5,-516 652.5,-516 649.5,-513 649.5,-510 649.5,-510 649.5,-504 649.5,-504 649.5,-501 652.5,-498 655.5,-498 655.5,-498 711.5,-498 711.5,-498 714.5,-498 717.5,-501 717.5,-504 717.5,-504 717.5,-510 717.5,-510 717.5,-513 714.5,-516 711.5,-516"/>
<text text-anchor="middle" x="683.5" y="-504.8" font-family="Helvetica,sans-Serif" font-size="9.00">auth.saga.ts</text>
</a>
</g>
</g>
<!-- src/client/auth/auth.saga.ts&#45;&gt;src/client/auth/auth.action.ts -->
<g id="edge20" class="edge"><title>src/client/auth/auth.saga.ts&#45;&gt;src/client/auth/auth.action.ts</title>
<path fill="none" stroke="black" d="M716.8,-497.916C733.02,-493.354 752.875,-487.77 770.287,-482.872"/>
<polygon fill="black" stroke="black" points="771.532,-486.158 780.211,-480.081 769.636,-479.42 771.532,-486.158"/>
</g>
<!-- src/client/auth/auth.saga.ts&#45;&gt;src/client/auth/auth.domain.ts -->
<g id="edge21" class="edge"><title>src/client/auth/auth.saga.ts&#45;&gt;src/client/auth/auth.domain.ts</title>
<path fill="none" stroke="black" d="M717.796,-506.22C731.88,-505.89 748.562,-505.499 763.972,-505.137"/>
<polygon fill="black" stroke="black" points="764.474,-508.627 774.39,-504.893 764.31,-501.629 764.474,-508.627"/>
</g>
<!-- src/client/auth/index.ts&#45;&gt;src/client/auth/auth.action.ts -->
<g id="edge22" class="edge"><title>src/client/auth/index.ts&#45;&gt;src/client/auth/auth.action.ts</title>
<path fill="none" stroke="black" d="M579.76,-471C623.858,-471 713.281,-471 767.538,-471"/>
<polygon fill="black" stroke="black" points="767.569,-474.5 777.569,-471 767.569,-467.5 767.569,-474.5"/>
</g>
<!-- src/client/auth/index.ts&#45;&gt;src/client/auth/auth.domain.ts -->
<g id="edge23" class="edge"><title>src/client/auth/index.ts&#45;&gt;src/client/auth/auth.domain.ts</title>
<path fill="none" stroke="black" d="M579.798,-473.261C617.012,-476.597 687.128,-483.384 746.5,-492 752.259,-492.836 758.285,-493.802 764.253,-494.817"/>
<polygon fill="black" stroke="black" points="763.733,-498.279 774.186,-496.555 764.939,-491.384 763.733,-498.279"/>
</g>
<!-- src/client/auth/index.ts&#45;&gt;src/client/auth/auth.reducer.ts -->
<g id="edge24" class="edge"><title>src/client/auth/index.ts&#45;&gt;src/client/auth/auth.reducer.ts</title>
<path fill="none" stroke="black" d="M579.605,-466.548C595.259,-463.878 615.656,-460.4 634.158,-457.244"/>
<polygon fill="black" stroke="black" points="634.93,-460.663 644.2,-455.532 633.753,-453.763 634.93,-460.663"/>
</g>
<!-- src/client/auth/index.ts&#45;&gt;src/client/auth/auth.saga.ts -->
<g id="edge25" class="edge"><title>src/client/auth/index.ts&#45;&gt;src/client/auth/auth.saga.ts</title>
<path fill="none" stroke="black" d="M579.605,-478.285C596.988,-483.136 620.22,-489.62 640.21,-495.198"/>
<polygon fill="black" stroke="black" points="639.448,-498.619 650.021,-497.936 641.33,-491.877 639.448,-498.619"/>
</g>
<!-- src/client/common/board/Board.tsx -->
<g id="node18" class="node"><title>src/client/common/board/Board.tsx</title>
<g id="a_node18"><a xlink:href="src/client/common/board/Board.tsx" xlink:title="Board.tsx">
<path fill="#ffffcc" stroke="black" d="M705,-209C705,-209 662,-209 662,-209 659,-209 656,-206 656,-203 656,-203 656,-197 656,-197 656,-194 659,-191 662,-191 662,-191 705,-191 705,-191 708,-191 711,-194 711,-197 711,-197 711,-203 711,-203 711,-206 708,-209 705,-209"/>
<text text-anchor="middle" x="683.5" y="-197.8" font-family="Helvetica,sans-Serif" font-size="9.00">Board.tsx</text>
</a>
</g>
</g>
<!-- src/client/common/board/Pieces.tsx -->
<g id="node19" class="node"><title>src/client/common/board/Pieces.tsx</title>
<g id="a_node19"><a xlink:href="src/client/common/board/Pieces.tsx" xlink:title="Pieces.tsx">
<path fill="#ffffcc" stroke="black" d="M837,-209C837,-209 790,-209 790,-209 787,-209 784,-206 784,-203 784,-203 784,-197 784,-197 784,-194 787,-191 790,-191 790,-191 837,-191 837,-191 840,-191 843,-194 843,-197 843,-197 843,-203 843,-203 843,-206 840,-209 837,-209"/>
<text text-anchor="middle" x="813.5" y="-197.8" font-family="Helvetica,sans-Serif" font-size="9.00">Pieces.tsx</text>
</a>
</g>
</g>
<!-- src/client/common/board/Board.tsx&#45;&gt;src/client/common/board/Pieces.tsx -->
<g id="edge27" class="edge"><title>src/client/common/board/Board.tsx&#45;&gt;src/client/common/board/Pieces.tsx</title>
<path fill="none" stroke="black" d="M711.022,-200C729.105,-200 753.352,-200 773.61,-200"/>
<polygon fill="black" stroke="black" points="773.787,-203.5 783.787,-200 773.787,-196.5 773.787,-203.5"/>
</g>
<!-- src/shared/domain.ts -->
<g id="node48" class="node"><title>src/shared/domain.ts</title>
<g id="a_node48"><a xlink:href="src/shared/domain.ts" xlink:title="domain.ts">
<path fill="#ffffcc" stroke="black" d="M836.5,-120C836.5,-120 790.5,-120 790.5,-120 787.5,-120 784.5,-117 784.5,-114 784.5,-114 784.5,-108 784.5,-108 784.5,-105 787.5,-102 790.5,-102 790.5,-102 836.5,-102 836.5,-102 839.5,-102 842.5,-105 842.5,-108 842.5,-108 842.5,-114 842.5,-114 842.5,-117 839.5,-120 836.5,-120"/>
<text text-anchor="middle" x="813.5" y="-108.8" font-family="Helvetica,sans-Serif" font-size="9.00">domain.ts</text>
</a>
</g>
</g>
<!-- src/client/common/board/Board.tsx&#45;&gt;src/shared/domain.ts -->
<g id="edge26" class="edge"><title>src/client/common/board/Board.tsx&#45;&gt;src/shared/domain.ts</title>
<path fill="none" stroke="black" d="M697.716,-190.811C719.868,-175.408 764.672,-144.255 791.28,-125.755"/>
<polygon fill="black" stroke="black" points="793.334,-128.589 799.546,-120.007 789.338,-122.842 793.334,-128.589"/>
</g>
<!-- src/client/home/Home.spec.tsx -->
<g id="node21" class="node"><title>src/client/home/Home.spec.tsx</title>
<g id="a_node21"><a xlink:href="src/client/home/Home.spec.tsx" xlink:title="Home.spec.tsx">
<path fill="#ffffcc" stroke="black" d="M458,-309C458,-309 392,-309 392,-309 389,-309 386,-306 386,-303 386,-303 386,-297 386,-297 386,-294 389,-291 392,-291 392,-291 458,-291 458,-291 461,-291 464,-294 464,-297 464,-297 464,-303 464,-303 464,-306 461,-309 458,-309"/>
<text text-anchor="middle" x="425" y="-297.8" font-family="Helvetica,sans-Serif" font-size="9.00">Home.spec.tsx</text>
</a>
</g>
</g>
<!-- src/client/home/Home.tsx -->
<g id="node22" class="node"><title>src/client/home/Home.tsx</title>
<g id="a_node22"><a xlink:href="src/client/home/Home.tsx" xlink:title="Home.tsx">
<path fill="#ffffcc" stroke="black" d="M574.5,-309C574.5,-309 530.5,-309 530.5,-309 527.5,-309 524.5,-306 524.5,-303 524.5,-303 524.5,-297 524.5,-297 524.5,-294 527.5,-291 530.5,-291 530.5,-291 574.5,-291 574.5,-291 577.5,-291 580.5,-294 580.5,-297 580.5,-297 580.5,-303 580.5,-303 580.5,-306 577.5,-309 574.5,-309"/>
<text text-anchor="middle" x="552.5" y="-297.8" font-family="Helvetica,sans-Serif" font-size="9.00">Home.tsx</text>
</a>
</g>
</g>
<!-- src/client/home/Home.spec.tsx&#45;&gt;src/client/home/Home.tsx -->
<g id="edge28" class="edge"><title>src/client/home/Home.spec.tsx&#45;&gt;src/client/home/Home.tsx</title>
<path fill="none" stroke="black" d="M464.336,-300C480.032,-300 498.143,-300 513.776,-300"/>
<polygon fill="black" stroke="black" points="514.143,-303.5 524.143,-300 514.143,-296.5 514.143,-303.5"/>
</g>
<!-- src/client/home/home.action.ts -->
<g id="node23" class="node"><title>src/client/home/home.action.ts</title>
<g id="a_node23"><a xlink:href="src/client/home/home.action.ts" xlink:title="home.action.ts">
<path fill="#ffffcc" stroke="black" d="M716,-345C716,-345 651,-345 651,-345 648,-345 645,-342 645,-339 645,-339 645,-333 645,-333 645,-330 648,-327 651,-327 651,-327 716,-327 716,-327 719,-327 722,-330 722,-333 722,-333 722,-339 722,-339 722,-342 719,-345 716,-345"/>
<text text-anchor="middle" x="683.5" y="-333.8" font-family="Helvetica,sans-Serif" font-size="9.00">home.action.ts</text>
</a>
</g>
</g>
<!-- src/client/home/Home.tsx&#45;&gt;src/client/home/home.action.ts -->
<g id="edge29" class="edge"><title>src/client/home/Home.tsx&#45;&gt;src/client/home/home.action.ts</title>
<path fill="none" stroke="black" d="M580.543,-307.547C597.86,-312.38 620.691,-318.751 640.357,-324.239"/>
<polygon fill="black" stroke="black" points="639.439,-327.617 650.012,-326.933 641.32,-320.874 639.439,-327.617"/>
</g>
<!-- src/client/home/home.worker&#45;factory.ts -->
<g id="node25" class="node"><title>src/client/home/home.worker&#45;factory.ts</title>
<g id="a_node25"><a xlink:href="src/client/home/home.worker-factory.ts" xlink:title="home.worker&#45;factory.ts">
<path fill="#ffffcc" stroke="black" d="M732.5,-312C732.5,-312 634.5,-312 634.5,-312 631.5,-312 628.5,-309 628.5,-306 628.5,-306 628.5,-300 628.5,-300 628.5,-297 631.5,-294 634.5,-294 634.5,-294 732.5,-294 732.5,-294 735.5,-294 738.5,-297 738.5,-300 738.5,-300 738.5,-306 738.5,-306 738.5,-309 735.5,-312 732.5,-312"/>
<text text-anchor="middle" x="683.5" y="-300.8" font-family="Helvetica,sans-Serif" font-size="9.00">home.worker&#45;factory.ts</text>
</a>
</g>
</g>
<!-- src/client/home/Home.tsx&#45;&gt;src/client/home/home.worker&#45;factory.ts -->
<g id="edge30" class="edge"><title>src/client/home/Home.tsx&#45;&gt;src/client/home/home.worker&#45;factory.ts</title>
<path fill="none" stroke="black" d="M580.543,-300.629C591.611,-300.886 604.931,-301.196 618.238,-301.506"/>
<polygon fill="black" stroke="black" points="618.295,-305.008 628.374,-301.741 618.458,-298.01 618.295,-305.008"/>
</g>
<!-- src/client/home/home.saga.ts -->
<g id="node24" class="node"><title>src/client/home/home.saga.ts</title>
<g id="a_node24"><a xlink:href="src/client/home/home.saga.ts" xlink:title="home.saga.ts">
<path fill="#ffffcc" stroke="black" d="M583.5,-397C583.5,-397 521.5,-397 521.5,-397 518.5,-397 515.5,-394 515.5,-391 515.5,-391 515.5,-385 515.5,-385 515.5,-382 518.5,-379 521.5,-379 521.5,-379 583.5,-379 583.5,-379 586.5,-379 589.5,-382 589.5,-385 589.5,-385 589.5,-391 589.5,-391 589.5,-394 586.5,-397 583.5,-397"/>
<text text-anchor="middle" x="552.5" y="-385.8" font-family="Helvetica,sans-Serif" font-size="9.00">home.saga.ts</text>
</a>
</g>
</g>
<!-- src/client/home/home.saga.ts&#45;&gt;src/client/home/home.action.ts -->
<g id="edge31" class="edge"><title>src/client/home/home.saga.ts&#45;&gt;src/client/home/home.action.ts</title>
<path fill="none" stroke="black" d="M580.123,-378.902C585.407,-377.013 590.897,-374.99 596,-373 615.209,-365.511 636.505,-356.412 653.16,-349.111"/>
<polygon fill="black" stroke="black" points="654.641,-352.283 662.379,-345.046 651.817,-345.878 654.641,-352.283"/>
</g>
<!-- src/client/home/home.worker.js -->
<g id="node26" class="node"><title>src/client/home/home.worker.js</title>
<g id="a_node26"><a xlink:href="src/client/home/home.worker.js" xlink:title="home.worker.js">
<path fill="#ffffcc" stroke="black" d="M586.5,-367C586.5,-367 518.5,-367 518.5,-367 515.5,-367 512.5,-364 512.5,-361 512.5,-361 512.5,-355 512.5,-355 512.5,-352 515.5,-349 518.5,-349 518.5,-349 586.5,-349 586.5,-349 589.5,-349 592.5,-352 592.5,-355 592.5,-355 592.5,-361 592.5,-361 592.5,-364 589.5,-367 586.5,-367"/>
<text text-anchor="middle" x="552.5" y="-355.8" font-family="Helvetica,sans-Serif" font-size="9.00">home.worker.js</text>
</a>
</g>
</g>
<!-- src/client/home/home.worker.spec.ts -->
<g id="node27" class="node"><title>src/client/home/home.worker.spec.ts</title>
<g id="a_node27"><a xlink:href="src/client/home/home.worker.spec.ts" xlink:title="home.worker.spec.ts">
<path fill="#ffffcc" stroke="black" d="M470.5,-369C470.5,-369 379.5,-369 379.5,-369 376.5,-369 373.5,-366 373.5,-363 373.5,-363 373.5,-357 373.5,-357 373.5,-354 376.5,-351 379.5,-351 379.5,-351 470.5,-351 470.5,-351 473.5,-351 476.5,-354 476.5,-357 476.5,-357 476.5,-363 476.5,-363 476.5,-366 473.5,-369 470.5,-369"/>
<text text-anchor="middle" x="425" y="-357.8" font-family="Helvetica,sans-Serif" font-size="9.00">home.worker.spec.ts</text>
</a>
</g>
</g>
<!-- src/client/home/home.worker.spec.ts&#45;&gt;src/client/home/home.worker.js -->
<g id="edge32" class="edge"><title>src/client/home/home.worker.spec.ts&#45;&gt;src/client/home/home.worker.js</title>
<path fill="none" stroke="black" d="M476.684,-359.192C485.099,-359.058 493.816,-358.919 502.196,-358.786"/>
<polygon fill="black" stroke="black" points="502.266,-362.285 512.209,-358.626 502.155,-355.286 502.266,-362.285"/>
</g>
<!-- src/client/home/index.ts&#45;&gt;src/client/home/Home.tsx -->
<g id="edge33" class="edge"><title>src/client/home/index.ts&#45;&gt;src/client/home/Home.tsx</title>
<path fill="none" stroke="black" d="M452.004,-323.784C470.061,-319.467 494.387,-313.653 514.465,-308.853"/>
<polygon fill="black" stroke="black" points="515.315,-312.248 524.227,-306.519 513.688,-305.44 515.315,-312.248"/>
</g>
<!-- src/client/home/index.ts&#45;&gt;src/client/home/home.action.ts -->
<g id="edge34" class="edge"><title>src/client/home/index.ts&#45;&gt;src/client/home/home.action.ts</title>
<path fill="none" stroke="black" d="M452.006,-330.608C494.841,-331.61 580.858,-333.622 634.843,-334.885"/>
<polygon fill="black" stroke="black" points="634.782,-338.385 644.861,-335.12 634.946,-331.387 634.782,-338.385"/>
</g>
<!-- src/client/home/index.ts&#45;&gt;src/client/home/home.saga.ts -->
<g id="edge35" class="edge"><title>src/client/home/index.ts&#45;&gt;src/client/home/home.saga.ts</title>
<path fill="none" stroke="black" d="M452.148,-335.769C460.202,-338.068 468.935,-341.111 476.5,-345 494.527,-354.268 494.85,-363.032 512.5,-373 513.447,-373.535 514.418,-374.059 515.405,-374.571"/>
<polygon fill="black" stroke="black" points="514.045,-377.799 524.588,-378.85 517.002,-371.454 514.045,-377.799"/>
</g>
<!-- src/client/home/index.ts&#45;&gt;src/client/home/home.worker&#45;factory.ts -->
<g id="edge36" class="edge"><title>src/client/home/index.ts&#45;&gt;src/client/home/home.worker&#45;factory.ts</title>
<path fill="none" stroke="black" d="M452.251,-328.092C485.684,-325.568 545.216,-320.759 596,-315 603.146,-314.19 610.614,-313.267 618.039,-312.303"/>
<polygon fill="black" stroke="black" points="618.651,-315.752 628.104,-310.968 617.73,-308.813 618.651,-315.752"/>
</g>
<!-- src/client/index.ts -->
<g id="node29" class="node"><title>src/client/index.ts</title>
<g id="a_node29"><a xlink:href="src/client/index.ts" xlink:title="index.ts">
<path fill="#ffffcc" stroke="black" d="M87,-566C87,-566 45,-566 45,-566 42,-566 39,-563 39,-560 39,-560 39,-554 39,-554 39,-551 42,-548 45,-548 45,-548 87,-548 87,-548 90,-548 93,-551 93,-554 93,-554 93,-560 93,-560 93,-563 90,-566 87,-566"/>
<text text-anchor="middle" x="66" y="-554.8" font-family="Helvetica,sans-Serif" font-size="9.00">index.ts</text>
</a>
</g>
</g>
<!-- src/client/root/root.tsx -->
<g id="node43" class="node"><title>src/client/root/root.tsx</title>
<g id="a_node43"><a xlink:href="src/client/root/root.tsx" xlink:title="root.tsx">
<path fill="#ffffcc" stroke="black" d="M198.5,-566C198.5,-566 156.5,-566 156.5,-566 153.5,-566 150.5,-563 150.5,-560 150.5,-560 150.5,-554 150.5,-554 150.5,-551 153.5,-548 156.5,-548 156.5,-548 198.5,-548 198.5,-548 201.5,-548 204.5,-551 204.5,-554 204.5,-554 204.5,-560 204.5,-560 204.5,-563 201.5,-566 198.5,-566"/>
<text text-anchor="middle" x="177.5" y="-554.8" font-family="Helvetica,sans-Serif" font-size="9.00">root.tsx</text>
</a>
</g>
</g>
<!-- src/client/index.ts&#45;&gt;src/client/root/root.tsx -->
<g id="edge37" class="edge"><title>src/client/index.ts&#45;&gt;src/client/root/root.tsx</title>
<path fill="none" stroke="black" d="M93.228,-557C107.314,-557 124.894,-557 140.266,-557"/>
<polygon fill="black" stroke="black" points="140.486,-560.5 150.486,-557 140.486,-553.5 140.486,-560.5"/>
</g>
<!-- src/client/menu/Menu.spec.tsx -->
<g id="node30" class="node"><title>src/client/menu/Menu.spec.tsx</title>
<g id="a_node30"><a xlink:href="src/client/menu/Menu.spec.tsx" xlink:title="Menu.spec.tsx">
<path fill="#ffffcc" stroke="black" d="M209,-392C209,-392 146,-392 146,-392 143,-392 140,-389 140,-386 140,-386 140,-380 140,-380 140,-377 143,-374 146,-374 146,-374 209,-374 209,-374 212,-374 215,-377 215,-380 215,-380 215,-386 215,-386 215,-389 212,-392 209,-392"/>
<text text-anchor="middle" x="177.5" y="-380.8" font-family="Helvetica,sans-Serif" font-size="9.00">Menu.spec.tsx</text>
</a>
</g>
</g>
<!-- src/client/menu/Menu.spec.tsx&#45;&gt;src/client/menu/Menu.tsx -->
<g id="edge39" class="edge"><title>src/client/menu/Menu.spec.tsx&#45;&gt;src/client/menu/Menu.tsx</title>
<path fill="none" stroke="black" d="M215.203,-383C228.955,-383 244.563,-383 258.272,-383"/>
<polygon fill="black" stroke="black" points="258.323,-386.5 268.323,-383 258.323,-379.5 258.323,-386.5"/>
</g>
<!-- src/client/menu/Menu.spec.tsx&#45;&gt;src/client/root/index.ts -->
<g id="edge38" class="edge"><title>src/client/menu/Menu.spec.tsx&#45;&gt;src/client/root/index.ts</title>
<path fill="none" stroke="black" d="M139.837,-388.212C131.516,-391.338 123.879,-396.265 119.5,-404 112.383,-416.57 112.383,-456.43 119.5,-469 124.233,-477.36 132.323,-483.263 140.983,-487.415"/>
<polygon fill="black" stroke="black" points="139.89,-490.749 150.472,-491.268 142.523,-484.263 139.89,-490.749"/>
</g>
<!-- src/client/menu/Menu.tsx&#45;&gt;src/client/auth/index.ts -->
<g id="edge40" class="edge"><title>src/client/menu/Menu.tsx&#45;&gt;src/client/auth/index.ts</title>
<path fill="none" stroke="black" d="M322.671,-386.786C330.702,-388.991 339.1,-392.48 345.5,-398 361.156,-411.504 348.988,-427.558 365.5,-440 388.531,-457.355 467.952,-465.504 515.243,-468.9"/>
<polygon fill="black" stroke="black" points="515.168,-472.402 525.383,-469.59 515.644,-465.419 515.168,-472.402"/>
</g>
<!-- src/client/menu/index.ts -->
<g id="node32" class="node"><title>src/client/menu/index.ts</title>
<g id="a_node32"><a xlink:href="src/client/menu/index.ts" xlink:title="index.ts">
<path fill="#ffffcc" stroke="black" d="M198.5,-422C198.5,-422 156.5,-422 156.5,-422 153.5,-422 150.5,-419 150.5,-416 150.5,-416 150.5,-410 150.5,-410 150.5,-407 153.5,-404 156.5,-404 156.5,-404 198.5,-404 198.5,-404 201.5,-404 204.5,-407 204.5,-410 204.5,-410 204.5,-416 204.5,-416 204.5,-419 201.5,-422 198.5,-422"/>
<text text-anchor="middle" x="177.5" y="-410.8" font-family="Helvetica,sans-Serif" font-size="9.00">index.ts</text>
</a>
</g>
</g>
<!-- src/client/menu/index.ts&#45;&gt;src/client/menu/Menu.tsx -->
<g id="edge41" class="edge"><title>src/client/menu/index.ts&#45;&gt;src/client/menu/Menu.tsx</title>
<path fill="none" stroke="black" d="M204.533,-406.267C220.391,-402.166 240.886,-396.866 258.308,-392.36"/>
<polygon fill="black" stroke="black" points="259.348,-395.706 268.153,-389.814 257.595,-388.929 259.348,-395.706"/>
</g>
<!-- src/client/menu/menu.domain.ts -->
<g id="node33" class="node"><title>src/client/menu/menu.domain.ts</title>
<g id="a_node33"><a xlink:href="src/client/menu/menu.domain.ts" xlink:title="menu.domain.ts">
<path fill="#ffffcc" stroke="black" d="M331.5,-422C331.5,-422 259.5,-422 259.5,-422 256.5,-422 253.5,-419 253.5,-416 253.5,-416 253.5,-410 253.5,-410 253.5,-407 256.5,-404 259.5,-404 259.5,-404 331.5,-404 331.5,-404 334.5,-404 337.5,-407 337.5,-410 337.5,-410 337.5,-416 337.5,-416 337.5,-419 334.5,-422 331.5,-422"/>
<text text-anchor="middle" x="295.5" y="-410.8" font-family="Helvetica,sans-Serif" font-size="9.00">menu.domain.ts</text>
</a>
</g>
</g>
<!-- src/client/menu/index.ts&#45;&gt;src/client/menu/menu.domain.ts -->
<g id="edge42" class="edge"><title>src/client/menu/index.ts&#45;&gt;src/client/menu/menu.domain.ts</title>
<path fill="none" stroke="black" d="M204.533,-413C215.924,-413 229.707,-413 243.026,-413"/>
<polygon fill="black" stroke="black" points="243.073,-416.5 253.073,-413 243.073,-409.5 243.073,-416.5"/>
</g>
<!-- src/client/menu/menu.fixture.tsx -->
<g id="node34" class="node"><title>src/client/menu/menu.fixture.tsx</title>
<g id="a_node34"><a xlink:href="src/client/menu/menu.fixture.tsx" xlink:title="menu.fixture.tsx">
<path fill="#ffffcc" stroke="black" d="M211.5,-362C211.5,-362 143.5,-362 143.5,-362 140.5,-362 137.5,-359 137.5,-356 137.5,-356 137.5,-350 137.5,-350 137.5,-347 140.5,-344 143.5,-344 143.5,-344 211.5,-344 211.5,-344 214.5,-344 217.5,-347 217.5,-350 217.5,-350 217.5,-356 217.5,-356 217.5,-359 214.5,-362 211.5,-362"/>
<text text-anchor="middle" x="177.5" y="-350.8" font-family="Helvetica,sans-Serif" font-size="9.00">menu.fixture.tsx</text>
</a>
</g>
</g>
<!-- src/client/menu/menu.fixture.tsx&#45;&gt;src/client/menu/Menu.tsx -->
<g id="edge43" class="edge"><title>src/client/menu/menu.fixture.tsx&#45;&gt;src/client/menu/Menu.tsx</title>
<path fill="none" stroke="black" d="M213.304,-362.001C227.481,-365.667 243.872,-369.907 258.199,-373.612"/>
<polygon fill="black" stroke="black" points="257.647,-377.084 268.205,-376.2 259.4,-370.307 257.647,-377.084"/>
</g>
<!-- src/client/openings/Openings.tsx -->
<g id="node35" class="node"><title>src/client/openings/Openings.tsx</title>
<g id="a_node35"><a xlink:href="src/client/openings/Openings.tsx" xlink:title="Openings.tsx">
<path fill="#ffffcc" stroke="black" d="M582,-248C582,-248 523,-248 523,-248 520,-248 517,-245 517,-242 517,-242 517,-236 517,-236 517,-233 520,-230 523,-230 523,-230 582,-230 582,-230 585,-230 588,-233 588,-236 588,-236 588,-242 588,-242 588,-245 585,-248 582,-248"/>
<text text-anchor="middle" x="552.5" y="-236.8" font-family="Helvetica,sans-Serif" font-size="9.00">Openings.tsx</text>
</a>
</g>
</g>
<!-- src/client/openings/Openings.tsx&#45;&gt;./openings.styles -->
<g id="edge46" class="edge"><title>src/client/openings/Openings.tsx&#45;&gt;./openings.styles</title>
<path fill="none" stroke="black" d="M580.003,-229.847C586.04,-226.634 591.881,-222.427 596,-217 638.819,-160.588 583.165,-115.411 628.5,-61 631.052,-57.9377 634.096,-55.2969 637.42,-53.0205"/>
<polygon fill="black" stroke="black" points="639.167,-56.0539 646.143,-48.0797 635.717,-49.9632 639.167,-56.0539"/>
</g>
<!-- src/client/openings/Openings.tsx&#45;&gt;src/client/common/board/Board.tsx -->
<g id="edge45" class="edge"><title>src/client/openings/Openings.tsx&#45;&gt;src/client/common/board/Board.tsx</title>
<path fill="none" stroke="black" d="M583.419,-229.955C602.139,-224.295 626.376,-216.968 646.193,-210.977"/>
<polygon fill="black" stroke="black" points="647.251,-214.313 655.81,-208.069 645.225,-207.613 647.251,-214.313"/>
</g>
<!-- src/client/openings/Openings.tsx&#45;&gt;src/shared/domain.ts -->
<g id="edge44" class="edge"><title>src/client/openings/Openings.tsx&#45;&gt;src/shared/domain.ts</title>
<path fill="none" stroke="black" d="M574.755,-229.937C581.856,-226.417 589.587,-222.017 596,-217 613.239,-203.514 610.49,-192.438 628.5,-180 673.855,-148.677 735.248,-129.408 774.371,-119.454"/>
<polygon fill="black" stroke="black" points="775.427,-122.798 784.299,-117.007 773.752,-116.002 775.427,-122.798"/>
</g>
<!-- src/client/openings/index.ts&#45;&gt;src/client/openings/Openings.tsx -->
<g id="edge47" class="edge"><title>src/client/openings/index.ts&#45;&gt;src/client/openings/Openings.tsx</title>
<path fill="none" stroke="black" d="M452.004,-239C467.802,-239 488.398,-239 506.749,-239"/>
<polygon fill="black" stroke="black" points="506.955,-242.5 516.955,-239 506.955,-235.5 506.955,-242.5"/>
</g>
<!-- src/client/root/root.domain.ts -->
<g id="node38" class="node"><title>src/client/root/root.domain.ts</title>
<g id="a_node38"><a xlink:href="src/client/root/root.domain.ts" xlink:title="root.domain.ts">
<path fill="#ffffcc" stroke="black" d="M327.5,-506C327.5,-506 263.5,-506 263.5,-506 260.5,-506 257.5,-503 257.5,-500 257.5,-500 257.5,-494 257.5,-494 257.5,-491 260.5,-488 263.5,-488 263.5,-488 327.5,-488 327.5,-488 330.5,-488 333.5,-491 333.5,-494 333.5,-494 333.5,-500 333.5,-500 333.5,-503 330.5,-506 327.5,-506"/>
<text text-anchor="middle" x="295.5" y="-494.8" font-family="Helvetica,sans-Serif" font-size="9.00">root.domain.ts</text>
</a>
</g>
</g>
<!-- src/client/root/index.ts&#45;&gt;src/client/root/root.domain.ts -->
<g id="edge48" class="edge"><title>src/client/root/index.ts&#45;&gt;src/client/root/root.domain.ts</title>
<path fill="none" stroke="black" d="M204.533,-497C217.003,-497 232.341,-497 246.797,-497"/>
<polygon fill="black" stroke="black" points="247.113,-500.5 257.113,-497 247.113,-493.5 247.113,-500.5"/>
</g>
<!-- src/client/root/root.reducer.ts -->
<g id="node39" class="node"><title>src/client/root/root.reducer.ts</title>
<g id="a_node39"><a xlink:href="src/client/root/root.reducer.ts" xlink:title="root.reducer.ts">
<path fill="#ffffcc" stroke="black" d="M457,-520C457,-520 393,-520 393,-520 390,-520 387,-517 387,-514 387,-514 387,-508 387,-508 387,-505 390,-502 393,-502 393,-502 457,-502 457,-502 460,-502 463,-505 463,-508 463,-508 463,-514 463,-514 463,-517 460,-520 457,-520"/>
<text text-anchor="middle" x="425" y="-508.8" font-family="Helvetica,sans-Serif" font-size="9.00">root.reducer.ts</text>
</a>
</g>
</g>
<!-- src/client/root/index.ts&#45;&gt;src/client/root/root.reducer.ts -->
<g id="edge49" class="edge"><title>src/client/root/index.ts&#45;&gt;src/client/root/root.reducer.ts</title>
<path fill="none" stroke="black" d="M204.688,-503.557C219.006,-506.808 237.115,-510.378 253.5,-512 295.012,-516.11 342.486,-515.392 376.78,-513.916"/>
<polygon fill="black" stroke="black" points="377.154,-517.403 386.979,-513.438 376.826,-510.41 377.154,-517.403"/>
</g>
<!-- src/client/root/root.saga.ts -->
<g id="node40" class="node"><title>src/client/root/root.saga.ts</title>
<g id="a_node40"><a xlink:href="src/client/root/root.saga.ts" xlink:title="root.saga.ts">
<path fill="#ffffcc" stroke="black" d="M322,-550C322,-550 269,-550 269,-550 266,-550 263,-547 263,-544 263,-544 263,-538 263,-538 263,-535 266,-532 269,-532 269,-532 322,-532 322,-532 325,-532 328,-535 328,-538 328,-538 328,-544 328,-544 328,-547 325,-550 322,-550"/>
<text text-anchor="middle" x="295.5" y="-538.8" font-family="Helvetica,sans-Serif" font-size="9.00">root.saga.ts</text>
</a>
</g>
</g>
<!-- src/client/root/index.ts&#45;&gt;src/client/root/root.saga.ts -->
<g id="edge50" class="edge"><title>src/client/root/index.ts&#45;&gt;src/client/root/root.saga.ts</title>
<path fill="none" stroke="black" d="M202.254,-506.01C219.188,-512.433 242.189,-521.158 260.986,-528.288"/>
<polygon fill="black" stroke="black" points="259.788,-531.576 270.379,-531.851 262.27,-525.032 259.788,-531.576"/>
</g>
<!-- src/client/root/root.store.ts -->
<g id="node42" class="node"><title>src/client/root/root.store.ts</title>
<g id="a_node42"><a xlink:href="src/client/root/root.store.ts" xlink:title="root.store.ts">
<path fill="#ffffcc" stroke="black" d="M322,-580C322,-580 269,-580 269,-580 266,-580 263,-577 263,-574 263,-574 263,-568 263,-568 263,-565 266,-562 269,-562 269,-562 322,-562 322,-562 325,-562 328,-565 328,-568 328,-568 328,-574 328,-574 328,-577 325,-580 322,-580"/>
<text text-anchor="middle" x="295.5" y="-568.8" font-family="Helvetica,sans-Serif" font-size="9.00">root.store.ts</text>
</a>
</g>
</g>
<!-- src/client/root/index.ts&#45;&gt;src/client/root/root.store.ts -->
<g id="edge51" class="edge"><title>src/client/root/index.ts&#45;&gt;src/client/root/root.store.ts</title>
<path fill="none" stroke="black" d="M204.649,-504.887C209.149,-506.838 213.62,-509.194 217.5,-512 237.974,-526.807 232.905,-541.362 253.5,-556 254.002,-556.357 254.513,-556.706 255.033,-557.048"/>
<polygon fill="black" stroke="black" points="253.555,-560.228 264.008,-561.955 256.913,-554.087 253.555,-560.228"/>
</g>
<!-- src/client/root/root.reducer.ts&#45;&gt;src/client/app/index.ts -->
<g id="edge52" class="edge"><title>src/client/root/root.reducer.ts&#45;&gt;src/client/app/index.ts</title>
<path fill="none" stroke="black" d="M403.061,-501.885C387.464,-495.437 365.499,-487.068 345.5,-482 298.494,-470.087 163.055,-486.008 129.5,-451 98.7456,-418.914 132.202,-290.21 109.5,-252 106.147,-246.356 101.215,-241.562 95.8888,-237.595"/>
<polygon fill="black" stroke="black" points="97.6522,-234.567 87.3631,-232.04 93.8308,-240.432 97.6522,-234.567"/>
</g>
<!-- src/client/root/root.reducer.ts&#45;&gt;src/client/auth/index.ts -->
<g id="edge53" class="edge"><title>src/client/root/root.reducer.ts&#45;&gt;src/client/auth/index.ts</title>
<path fill="none" stroke="black" d="M454.478,-501.923C472.584,-496.153 496.181,-488.631 515.57,-482.452"/>
<polygon fill="black" stroke="black" points="516.81,-485.73 525.275,-479.359 514.684,-479.061 516.81,-485.73"/>
</g>
<!-- src/client/root/root.saga.ts&#45;&gt;src/client/auth/auth.saga.ts -->
<g id="edge54" class="edge"><title>src/client/root/root.saga.ts&#45;&gt;src/client/auth/auth.saga.ts</title>
<path fill="none" stroke="black" d="M328.047,-538.456C363.991,-535.538 424.488,-530.566 476.5,-526 532.736,-521.064 597.573,-515.026 639.25,-511.101"/>
<polygon fill="black" stroke="black" points="639.7,-514.574 649.327,-510.151 639.043,-507.605 639.7,-514.574"/>
</g>
<!-- src/client/root/root.saga.ts&#45;&gt;src/client/home/home.saga.ts -->
<g id="edge55" class="edge"><title>src/client/root/root.saga.ts&#45;&gt;src/client/home/home.saga.ts</title>
<path fill="none" stroke="black" d="M313.192,-531.894C322.84,-526.442 335.09,-519.192 345.5,-512 354.866,-505.53 356.108,-502.431 365.5,-496 420.085,-458.624 488.203,-421.254 524.978,-401.784"/>
<polygon fill="black" stroke="black" points="526.836,-404.761 534.054,-397.005 523.575,-398.567 526.836,-404.761"/>
</g>
<!-- src/client/root/root.spec.tsx -->
<g id="node41" class="node"><title>src/client/root/root.spec.tsx</title>
<g id="a_node41"><a xlink:href="src/client/root/root.spec.tsx" xlink:title="root.spec.tsx">
<path fill="#ffffcc" stroke="black" d="M205.5,-536C205.5,-536 149.5,-536 149.5,-536 146.5,-536 143.5,-533 143.5,-530 143.5,-530 143.5,-524 143.5,-524 143.5,-521 146.5,-518 149.5,-518 149.5,-518 205.5,-518 205.5,-518 208.5,-518 211.5,-521 211.5,-524 211.5,-524 211.5,-530 211.5,-530 211.5,-533 208.5,-536 205.5,-536"/>
<text text-anchor="middle" x="177.5" y="-524.8" font-family="Helvetica,sans-Serif" font-size="9.00">root.spec.tsx</text>
</a>
</g>
</g>
<!-- src/client/root/root.store.ts&#45;&gt;src/client/root/root.reducer.ts -->
<g id="edge56" class="edge"><title>src/client/root/root.store.ts&#45;&gt;src/client/root/root.reducer.ts</title>
<path fill="none" stroke="black" d="M328.244,-562.419C334.067,-560.526 340.03,-558.369 345.5,-556 365.196,-547.468 386.231,-535.224 401.563,-525.661"/>
<polygon fill="black" stroke="black" points="403.742,-528.423 410.31,-520.11 399.992,-522.513 403.742,-528.423"/>
</g>
<!-- src/client/root/root.tsx&#45;&gt;src/client/app/App.tsx -->
<g id="edge57" class="edge"><title>src/client/root/root.tsx&#45;&gt;src/client/app/App.tsx</title>
<path fill="none" stroke="black" d="M150.297,-554.616C137.252,-551.863 123.002,-546.073 116.167,-534 105.601,-515.339 109.74,-361.459 116.167,-341 124.911,-313.162 145.928,-286.435 160.918,-269.887"/>
<polygon fill="black" stroke="black" points="163.828,-271.9 168.111,-262.21 158.72,-267.114 163.828,-271.9"/>
<path fill="none" stroke="black" d="M150.331,-555.023C139.534,-552.653 128.378,-547.793 122.833,-538 111.83,-518.566 116.48,-358.411 122.833,-337 130.435,-311.385 148.587,-286.275 161.897,-270.281"/>
<polygon fill="black" stroke="black" points="164.821,-272.25 168.696,-262.389 159.517,-267.681 164.821,-272.25"/>
</g>
<!-- src/client/root/root.tsx&#45;&gt;src/client/root/root.saga.ts -->
<g id="edge58" class="edge"><title>src/client/root/root.tsx&#45;&gt;src/client/root/root.saga.ts</title>
<path fill="none" stroke="black" d="M204.533,-553.409C218.67,-551.459 236.492,-549.001 252.537,-546.788"/>
<polygon fill="black" stroke="black" points="253.34,-550.21 262.768,-545.377 252.383,-543.276 253.34,-550.21"/>
</g>
<!-- src/client/root/root.tsx&#45;&gt;src/client/root/root.store.ts -->
<g id="edge59" class="edge"><title>src/client/root/root.tsx&#45;&gt;src/client/root/root.store.ts</title>
<path fill="none" stroke="black" d="M204.533,-560.142C218.67,-561.848 236.492,-563.999 252.537,-565.936"/>
<polygon fill="black" stroke="black" points="252.42,-569.447 262.768,-567.17 253.259,-562.497 252.42,-569.447"/>
</g>
<!-- src/server/index.spec.ts -->
<g id="node44" class="node"><title>src/server/index.spec.ts</title>
<g id="a_node44"><a xlink:href="src/server/index.spec.ts" xlink:title="index.spec.ts">
<path fill="#ffffcc" stroke="black" d="M95.5,-120C95.5,-120 36.5,-120 36.5,-120 33.5,-120 30.5,-117 30.5,-114 30.5,-114 30.5,-108 30.5,-108 30.5,-105 33.5,-102 36.5,-102 36.5,-102 95.5,-102 95.5,-102 98.5,-102 101.5,-105 101.5,-108 101.5,-108 101.5,-114 101.5,-114 101.5,-117 98.5,-120 95.5,-120"/>
<text text-anchor="middle" x="66" y="-108.8" font-family="Helvetica,sans-Serif" font-size="9.00">index.spec.ts</text>
</a>
</g>
</g>
<!-- src/server/index.ts -->
<g id="node45" class="node"><title>src/server/index.ts</title>
<g id="a_node45"><a xlink:href="src/server/index.ts" xlink:title="index.ts">
<path fill="#ffffcc" stroke="black" d="M87,-90C87,-90 45,-90 45,-90 42,-90 39,-87 39,-84 39,-84 39,-78 39,-78 39,-75 42,-72 45,-72 45,-72 87,-72 87,-72 90,-72 93,-75 93,-78 93,-78 93,-84 93,-84 93,-87 90,-90 87,-90"/>
<text text-anchor="middle" x="66" y="-78.8" font-family="Helvetica,sans-Serif" font-size="9.00">index.ts</text>
</a>
</g>
</g>
<!-- src/server/index.ts&#45;&gt;http -->
<g id="edge60" class="edge"><title>src/server/index.ts&#45;&gt;http</title>
<path fill="none" stroke="grey" d="M90.4905,-71.9899C105.83,-66.1064 126.092,-58.3346 143.097,-51.8123"/>
<polygon fill="grey" stroke="grey" points="144.587,-54.9892 152.671,-48.1401 142.08,-48.4535 144.587,-54.9892"/>
</g>
<!-- src/server/index.ts&#45;&gt;path -->
<g id="edge61" class="edge"><title>src/server/index.ts&#45;&gt;path</title>
<path fill="none" stroke="grey" d="M74.5681,-71.9935C85.4932,-59.5297 106.869,-37.083 129.5,-24 132.987,-21.9839 136.78,-20.2022 140.647,-18.637"/>
<polygon fill="grey" stroke="grey" points="142.053,-21.8513 150.285,-15.1817 139.691,-15.2619 142.053,-21.8513"/>
</g>
<!-- src/shared/chess.spec.ts -->
<g id="node46" class="node"><title>src/shared/chess.spec.ts</title>
<g id="a_node46"><a xlink:href="src/shared/chess.spec.ts" xlink:title="chess.spec.ts">
<path fill="#ffffcc" stroke="black" d="M714.5,-120C714.5,-120 652.5,-120 652.5,-120 649.5,-120 646.5,-117 646.5,-114 646.5,-114 646.5,-108 646.5,-108 646.5,-105 649.5,-102 652.5,-102 652.5,-102 714.5,-102 714.5,-102 717.5,-102 720.5,-105 720.5,-108 720.5,-108 720.5,-114 720.5,-114 720.5,-117 717.5,-120 714.5,-120"/>
<text text-anchor="middle" x="683.5" y="-108.8" font-family="Helvetica,sans-Serif" font-size="9.00">chess.spec.ts</text>
</a>
</g>
</g>
<!-- src/shared/chess.ts -->
<g id="node47" class="node"><title>src/shared/chess.ts</title>
<g id="a_node47"><a xlink:href="src/shared/chess.ts" xlink:title="chess.ts">
<path fill="#ffffcc" stroke="black" d="M704.5,-90C704.5,-90 662.5,-90 662.5,-90 659.5,-90 656.5,-87 656.5,-84 656.5,-84 656.5,-78 656.5,-78 656.5,-75 659.5,-72 662.5,-72 662.5,-72 704.5,-72 704.5,-72 707.5,-72 710.5,-75 710.5,-78 710.5,-78 710.5,-84 710.5,-84 710.5,-87 707.5,-90 704.5,-90"/>
<text text-anchor="middle" x="683.5" y="-78.8" font-family="Helvetica,sans-Serif" font-size="9.00">chess.ts</text>
</a>
</g>
</g>
<!-- src/shared/chess.ts&#45;&gt;src/shared/domain.ts -->
<g id="edge62" class="edge"><title>src/shared/chess.ts&#45;&gt;src/shared/domain.ts</title>
<path fill="none" stroke="black" d="M710.712,-87.1433C728.982,-91.4255 753.653,-97.2078 774.131,-102.007"/>
<polygon fill="black" stroke="black" points="773.565,-105.469 784.1,-104.344 775.163,-98.6541 773.565,-105.469"/>
</g>
</g>
</svg>
